<?xml version="1.0" encoding="UTF-8" standalone="no"?>
<!-- Created with Inkscape (http://www.inkscape.org/) -->

<svg
   xmlns:ns0="http://sozi.baierouge.fr"
   xmlns:osb="http://www.openswatchbook.org/uri/2009/osb"
   xmlns:dc="http://purl.org/dc/elements/1.1/"
   xmlns:cc="http://creativecommons.org/ns#"
   xmlns:rdf="http://www.w3.org/1999/02/22-rdf-syntax-ns#"
   xmlns:svg="http://www.w3.org/2000/svg"
   xmlns="http://www.w3.org/2000/svg"
   xmlns:xlink="http://www.w3.org/1999/xlink"
   xmlns:sodipodi="http://sodipodi.sourceforge.net/DTD/sodipodi-0.dtd"
   xmlns:inkscape="http://www.inkscape.org/namespaces/inkscape"
   sodipodi:docname="backgroud pésentation test.svg"
   inkscape:version="0.92.2 (5c3e80d, 2017-08-06)"
   id="svg85"
   version="1.1"
   viewBox="0 0 210 297"
   height="297mm"
   width="210mm">
  <sodipodi:namedview
     showguides="false"
     inkscape:window-maximized="1"
     inkscape:window-y="-8"
     inkscape:window-x="-8"
     inkscape:window-height="715"
     inkscape:window-width="1366"
     showgrid="false"
     inkscape:current-layer="g1097"
     inkscape:document-units="mm"
     inkscape:cy="1005.6305"
     inkscape:cx="205.12351"
     inkscape:zoom="2.8284271"
     inkscape:pageshadow="2"
     inkscape:pageopacity="0.0"
     borderopacity="1.0"
     bordercolor="#666666"
     pagecolor="#ffffff"
     id="base" />
  <defs
     id="defs79">
    <linearGradient
       inkscape:collect="always"
       id="linearGradient885">
      <stop
         style="stop-color:#ffff00;stop-opacity:1;"
         offset="0"
         id="stop881" />
      <stop
         style="stop-color:#ffff00;stop-opacity:0;"
         offset="1"
         id="stop883" />
    </linearGradient>
    <linearGradient
       id="linearGradient2419"
       inkscape:collect="always">
      <stop
         style="stop-color:#1dc420;stop-opacity:0;"
         offset="0"
         id="stop2417" />
      <stop
         style="stop-color:#140000;stop-opacity:1"
         offset="1"
         id="stop2415" />
    </linearGradient>
    <linearGradient
       id="linearGradient2384"
       osb:paint="solid">
      <stop
         style="stop-color:#000000;stop-opacity:1;"
         offset="0"
         id="stop2382" />
    </linearGradient>
    <linearGradient
       id="linearGradient942"
       osb:paint="gradient">
      <stop
         style="stop-color:#000000;stop-opacity:1;"
         offset="0"
         id="stop938" />
      <stop
         style="stop-color:#000000;stop-opacity:0;"
         offset="1"
         id="stop940" />
    </linearGradient>
    <linearGradient
       inkscape:collect="always"
       id="linearGradient926">
      <stop
         style="stop-color:#1dc420;stop-opacity:1;"
         offset="0"
         id="stop922" />
      <stop
         style="stop-color:#1dc420;stop-opacity:0;"
         offset="1"
         id="stop924" />
    </linearGradient>
    <radialGradient
       inkscape:collect="always"
       xlink:href="#linearGradient926"
       id="radialGradient928"
       cx="83.154762"
       cy="13.438124"
       fx="83.154762"
       fy="13.438124"
       r="31.750001"
       gradientTransform="matrix(-2.6933451,0.02369021,-0.00419195,-0.48127767,299.83558,57.719965)"
       gradientUnits="userSpaceOnUse" />
    <radialGradient
       inkscape:collect="always"
       xlink:href="#linearGradient2419"
       id="radialGradient2406"
       cx="58.464756"
       cy="-32.068501"
       fx="58.464756"
       fy="-32.068501"
       r="82.557953"
       gradientTransform="matrix(2.702496,0.01419798,-0.00997778,1.8992333,-148.06998,79.06305)"
       gradientUnits="userSpaceOnUse" />
    <filter
       inkscape:collect="always"
       style="color-interpolation-filters:sRGB"
       id="filter2707"
       x="-0.0051190501"
       width="1.0102381"
       y="-0.0072471859"
       height="1.0144944">
      <feGaussianBlur
         inkscape:collect="always"
         stdDeviation="0.35218191"
         id="feGaussianBlur2709" />
    </filter>
    <linearGradient
       inkscape:collect="always"
       xlink:href="#linearGradient885"
       id="linearGradient887"
       x1="56.023251"
       y1="121.98383"
       x2="93.159035"
       y2="122.00739"
       gradientUnits="userSpaceOnUse"
       gradientTransform="matrix(2.2256089,0,0,1,-63.30211,-51.064583)" />
    <linearGradient
       inkscape:collect="always"
       xlink:href="#linearGradient885"
       id="linearGradient889"
       x1="56.023251"
       y1="121.98383"
       x2="93.159035"
       y2="122.00739"
       gradientUnits="userSpaceOnUse"
       gradientTransform="translate(34.792708,-51.064583)" />
  </defs>
  <metadata
     id="metadata82">
    <rdf:RDF>
      <cc:Work
         rdf:about="">
        <dc:format>image/svg+xml</dc:format>
        <dc:type
           rdf:resource="http://purl.org/dc/dcmitype/StillImage" />
        <dc:title />
      </cc:Work>
    </rdf:RDF>
  </metadata>
  <g
     inkscape:label="font"
     inkscape:groupmode="layer"
     id="layer1"
     style="display:inline"
     sodipodi:insensitive="true">
    <g
       inkscape:groupmode="layer"
       id="layer2"
       inkscape:label="Frames"
       style="display:inline"
       sodipodi:insensitive="true">
      <rect
         y="53.22245"
         x="12.314765"
         height="47.625"
         width="63.5"
         id="rect-background"
         style="display:inline;fill:none;stroke:#ff0000;stroke-width:0.26458332;stroke-linecap:round;stroke-linejoin:round;stroke-miterlimit:4;stroke-dasharray:none;stroke-dashoffset:0;stroke-opacity:1"
         inkscape:label="#rect4059" />
    </g>
    <path
       style="opacity:1;fill:url(#radialGradient928);fill-opacity:1;stroke:none;stroke-width:1.10000002;stroke-linecap:square;stroke-linejoin:miter;stroke-miterlimit:4;stroke-dasharray:none;stroke-dashoffset:0;stroke-opacity:1"
       d="m 75.814766,53.22245 -5.32e-4,9.667907 -10.49617,-0.0511 C 61.27636,62.819577 61.776318,58.75513 61.776318,58.75513 H 12.338243 l -0.02348,-5.532677"
       id="path97"
       inkscape:connector-curvature="0"
       sodipodi:nodetypes="ccsccc" />
    <path
       style="opacity:1;fill:url(#radialGradient2406);fill-opacity:1;stroke-width:0.26458332;filter:url(#filter2707)"
       d="m 16.400276,73.94171 c -2.13108,-1.16196 -2.88227,-2.57328 -2.73575,-5.13988 l 0.0899,-1.57523 -5.68855,-5.69289 -5.68854,-5.69289 -0.0771,-8.06025 -0.0771,-8.06025 -2.20331,-1.0325 c -2.73921,-1.28364 -5.01303,-2.814095 -6.85074,-4.611076 -1.33311,-1.303565 -3.6943,-4.290208 -3.96838,-5.019551 -0.0738,-0.196379 -1.32605,0.854805 -3.06186,2.570239 l -2.937011,2.902508 3.700761,3.73258 3.70077,3.73258 v 8.37322 8.37322 l 0.78007,0.40339 c 1.40517,0.72665 2.23019,2.11975 2.33418,3.94144 0.10965,1.92067 -0.38686,3.02839 -1.9099,4.26109 -0.89688,0.72591 -1.16699,0.80037 -2.90315,0.80037 -1.7022,0 -2.0251,-0.0845 -2.91466,-0.76303 -1.1739,-0.89538 -1.987151,-2.51838 -1.995321,-3.98207 -0.008,-1.40593 0.910821,-3.20932 2.018191,-3.96179 l 0.90908,-0.61774 0.007,-7.62089 0.007,-7.62088 -3.189701,-3.1897 -3.1897,-3.18971 -1.40126,1.38385 -1.40124,1.38384 h -9.07643 -9.076429 l -1.36629,1.43421 c -1.17208,1.23033 -1.54869,1.46083 -2.6494,1.62149 -4.25049,0.62041 -7.25838,-3.57951 -5.19145,-7.24883 1.71054,-3.036644 6.41627,-3.283907 8.26213,-0.434136 l 0.59367,0.916551 8.466669,0.0016 8.46666,0.0016 5.55232,-5.551717 5.552321,-5.551718 -0.49187,-1.788744 c -0.28628,-1.041117 -0.54737,-3.096146 -0.62467,-4.916784 l -0.13283,-3.128116 -3.100081,3.061896 -3.10008,3.061893 h -6.58042 -6.58042 l -5.651319,5.688542 -5.65131,5.688541 -12.61458,0.0033 -12.61458,0.0033 -0.57621,0.889918 c -1.11957,1.729097 -3.78846,2.463649 -5.83875,1.606981 -1.25685,-0.525145 -1.85789,-1.081958 -2.47673,-2.294472 -1.05112,-2.059482 -0.38905,-4.752554 1.52738,-6.212922 0.85834,-0.654068 1.20131,-0.742931 2.8674,-0.742931 1.66533,0 2.00908,0.08896 2.86423,0.74128 0.53448,0.407705 1.15331,1.092314 1.37517,1.521355 l 0.4034,0.780063 h 11.77482 11.77483 l 3.6965,-3.768223 c 2.03308,-2.072523 3.69651,-3.798929 3.69651,-3.836458 0,-0.03753 -1.78594,-0.06824 -3.96875,-0.06824 -3.03548,0 -3.96875,0.07915 -3.96875,0.336593 0,0.631285 -1.67977,2.376405 -2.75941,2.866768 -1.43952,0.653814 -2.39592,0.620712 -4.02851,-0.139436 -4.1886,-1.950249 -3.50042,-8.0187 1.03897,-9.161732 1.62717,-0.409728 3.54105,0.198737 4.67019,1.484765 l 0.79801,0.908876 h 12.644689 12.64469 l 4.66783,-4.696354 c 3.827211,-3.850603 4.818601,-5.006065 5.505081,-6.416146 0.46049,-0.945885 1.42274,-2.523463 2.13834,-3.505729 l 1.30108,-1.785937 h -6.37261 -6.372621 l -4.33961,4.284297 c -2.38678,2.356363 -4.48812,4.378603 -4.66964,4.493866 -0.18151,0.11526 -5.57147,0.211391 -11.977669,0.213619 l -11.64765,0.0041 -0.4635,0.859896 c -1.37622,2.5532 -5.10793,3.023629 -7.47799,0.942694 -1.94501,-1.707748 -2.09267,-4.707384 -0.33052,-6.71437 1.12181,-1.27766 2.05086,-1.702803 3.72112,-1.702803 1.63183,0 3.50328,0.994762 4.14454,2.203018 l 0.37544,0.707398 11.00164,-0.0066 11.001649,-0.0066 2.70646,-2.639216 2.70646,-2.639216 h -3.35724 -3.35724 l -3.998679,-3.96875 -3.99867,-3.96875 h -11.54948 -11.54948 l -0.37853,0.7276 c -1.59191,3.05993 -5.64495,3.60701 -7.99389,1.07902 -1.10537,-1.18963 -1.5264,-2.36237 -1.36433,-3.80022 0.27836,-2.46964 2.36865,-4.3564 4.82633,-4.3564 1.65372,0 2.77287,0.52429 3.87994,1.81765 l 0.93536,1.09276 h 12.52308 12.52309 l 3.998669,3.96875 3.99867,3.96875 h 13.33539 13.335391 l 1.78144,-1.05833 c 0.97979,-0.58209 1.93794,-1.05834 2.12922,-1.05834 0.19128,0 -1.73326,-2.08359 -4.27675,-4.6302 l -4.62454,-4.63021 h -13.994801 -13.994799 l -4.54462,-4.49792 -4.54463,-4.49791 h -1.3215 c -3.13516,0 -5.57106,-3.27571 -4.60735,-6.19579 0.95558,-2.89544 4.28929,-4.38958 6.86366,-3.07623 2.25347,1.14963 3.24802,3.28475 2.66402,5.71914 l -0.35332,1.4728 3.61948,3.61973 3.61949,3.61972 14.152159,0.13229 14.152171,0.13229 5.63572,5.63138 5.63572,5.63138 1.31167,-0.26719 c 0.72142,-0.14696 1.78792,-0.29983 2.37001,-0.33971 l 1.05833,-0.0725 0.13229,-9.96626 c 0.0728,-5.48144 0.22465,-10.06535 0.33754,-10.18646 0.11288,-0.12111 2.05503,-2.07294 4.31587,-4.33741 l 4.11063,-4.11721 -0.3138,-1.2462 c -0.39635,-1.57404 0.006,-3.19728 1.08563,-4.37926 l 0.75305,-0.82449 c 0,0 0.67077,-0.54428 1.607879,-0.74166 0,0 0.882581,-0.056 1.464661,-0.0481 0.84701,-0.0123 1.577669,0.0388 2.77812,0.7897 l 0.55585,0.55585 c 0.30571,0.30571 0.79347,1.09304 1.0839,1.74961 0.90827,2.05329 0.22978,4.25541 -1.7845,5.79178 -0.82655,0.63044 -1.2568,0.7563 -2.69527,0.78843 l -1.71172,0.0382 -3.94184,3.93526 -3.94183,3.93527 v 9.19758 c 0,8.58201 0.031,9.19778 0.46302,9.2007 0.61481,0.004 4.57875,0.9817 4.7745,1.17745 0.0844,0.0844 3.26592,-2.94465 7.07001,-6.73125 l 6.91653,-6.88474 H 50.586618 69.65048 l 0.70818,-0.92849 c 2.66844,-3.4985 8.32099,-1.99237 8.81016,2.34748 0.36443,3.23327 -2.15282,5.72074 -5.46697,5.40229 -1.57557,-0.15139 -2.4508,-0.68157 -3.40611,-2.06326 l -0.71475,-1.03377 -18.262462,-0.01 -18.262457,-0.01 -2.105755,2.11817 -2.10575,2.11818 4.09313,4.09953 4.093137,4.09953 h 8.736011 8.736014 l 0.35818,-0.80919 c 0.77827,-1.75825 3.78306,-2.82915 5.9404,-2.11717 1.19462,0.39426 2.7021,2.05315 3.11347,3.42615 0.25253,0.842896 0.24687,1.316378 -0.0275,2.296225 -1.14446,4.087588 -6.02469,5.122987 -8.64831,1.834838 l -0.73939,-0.926669 -9.527924,-7e-6 -9.527919,-8e-6 -4.492079,-4.497919 c -2.47064,-2.47385 -4.61508,-4.49791 -4.76542,-4.49791 -0.3158,0 -4.79139,4.4359 -4.61336,4.57246 0.0651,0.0499 0.89227,0.63531 1.83816,1.30083 3.24238,2.281322 5.93954,5.553117 7.72748,9.373849 l 0.78906,1.686189 h 7.587808 7.587814 l 0.50914,-0.945422 c 0.74346,-1.380509 2.34734,-2.229578 4.21164,-2.229578 1.75688,0 2.68016,0.409364 3.80007,1.684878 1.58951,1.810353 1.46392,4.557117 -0.29186,6.382871 -2.18766,2.274861 -5.1403,2.166858 -7.35698,-0.269108 l -0.8367,-0.919474 -7.035096,-1.56e-4 -7.035091,-1.56e-4 v 3.90276 c 0,2.146516 -0.05952,4.319478 -0.132285,4.828801 l -0.13229,0.926042 16.519342,0.06817 16.51935,0.06817 5.183602,-5.16007 5.1836,-5.160071 -0.10161,-1.065509 c -0.15719,-1.648277 0.17013,-2.83106 1.06574,-3.851105 1.1135,-1.268203 2.1958,-1.776214 3.78414,-1.776214 4.55187,0 6.63168,5.471758 3.2188,8.468312 -1.31828,1.157459 -2.72793,1.553146 -4.19347,1.177097 l -1.142,-0.293029 -5.5585,5.548064 -5.558512,5.548066 h -7.79994 -7.79995 l 4.35961,4.365625 4.35961,4.365624 h 4.94237 4.942362 l 0.56409,-0.912704 c 1.44325,-2.335239 5.0431,-2.919605 7.25712,-1.178054 1.55929,1.226537 2.19983,3.934272 1.38949,5.873702 -0.42528,1.01783 -2.02878,2.49182 -2.96691,2.72727 -0.36785,0.0923 -1.30958,0.11473 -2.09272,0.0498 -1.56429,-0.12972 -3.11844,-1.07847 -3.63931,-2.22164 l -0.28895,-0.63419 h -5.831872 -5.83186 l -6.23748,-6.217709 -6.23748,-6.217708 h -7.574083 -7.574069 l -0.93571,1.841862 c -0.51465,1.013024 -1.42288,2.501305 -2.01829,3.307292 l -1.08258,1.465429 h 5.622951 5.622954 l 10.326537,10.287134 10.32654,10.28714 1.00622,-0.13127 c 2.16497,-0.28242 4.61484,1.4183 5.20612,3.61413 0.58595,2.17604 -0.52867,4.75142 -2.45126,5.66375 -1.25272,0.59445 -3.52702,0.57061 -4.69125,-0.0492 -0.50705,-0.26993 -1.2533,-0.95454 -1.65833,-1.52135 -0.6869,-0.96128 -0.73018,-1.17626 -0.64358,-3.19739 l 0.0928,-2.16682 -6.83026,-6.82645 -6.830248,-6.82647 -4.055884,4.04956 -4.055885,4.04955 0.118237,1.42578 c 0.155279,1.87245 -0.04299,2.56468 -1.069432,3.73373 -1.532454,1.74537 -3.789634,2.17152 -5.953504,1.12401 -1.7183,-0.83181 -2.58195,-2.28115 -2.57084,-4.31425 0.0171,-3.12599 2.25263,-5.13042 5.4033,-4.84473 l 1.52988,0.13872 4.016168,-4.02244 4.016163,-4.02244 -1.452036,-1.37328 -1.452036,-1.373272 -6.828859,0.0019 c -6.44384,0.0016 -6.87361,0.03227 -7.62261,0.543162 -1.60253,1.0931 -4.40473,2.37986 -6.67059,3.06311 -2.03185,0.61268 -2.81763,0.70471 -6.22769,0.72938 l -3.90244,0.0282 -1.6e-4,6.73215 -1.6e-4,6.73215 5.29968,5.32269 5.29967,5.3227 1.56938,-0.11352 c 1.33638,-0.0967 1.74422,-0.0111 2.74708,0.57667 1.68022,0.98467 2.413,2.28498 2.40447,4.26674 -0.008,1.82378 -0.67611,3.0836 -2.18361,4.11656 -1.16494,0.79822 -3.54191,0.97801 -4.68563,0.3544 z m 3.34113,-0.7624 c 1.85558,-0.81626 2.61199,-1.87908 2.61199,-3.67005 0,-1.63183 -0.67092,-2.76604 -2.11693,-3.57874 -0.92045,-0.51732 -1.31317,-0.58397 -2.59276,-0.44 l -1.50801,0.16966 -5.4944,-5.50965 -5.49439,-5.50965 0.0704,-7.40173 0.0704,-7.40173 3.73881,-0.0507 c 5.40682,-0.0734 9.47926,-1.23703 13.19452,-3.770198 0.75281,-0.513283 1.17554,-0.541289 8.19497,-0.542943 l 7.401212,-0.0019 1.660763,1.646001 c 0.913421,0.9053 1.660763,1.76982 1.660763,1.92115 0,0.15133 -2.01699,2.28952 -4.4822,4.75153 l -4.482208,4.47639 -1.0733,-0.35422 c -2.48764,-0.821 -5.04534,1.11879 -5.0418,3.82375 0.002,1.59709 0.60299,2.62974 2.03449,3.49632 1.16037,0.70245 2.03069,0.76548 3.28927,0.23822 1.892213,-0.7927 2.741565,-2.38464 2.482382,-4.65271 l -0.166362,-1.4557 4.333308,-4.29948 c 2.383319,-2.36471 4.50455,-4.29948 4.71386,-4.29948 0.2093,0 3.649444,3.27052 7.644764,7.26782 l 7.26422,7.26783 -0.32071,0.8869 c -0.79276,2.19235 -0.0723,4.1724 1.88475,5.18013 4.15082,2.13733 7.77319,-3.14539 4.37404,-6.37893 -0.99563,-0.94711 -1.1303,-0.99458 -2.82162,-0.99458 h -1.77608 L 48.811738,43.80617 38.627852,33.619713 h -5.734336 c -3.15389,0 -5.92267,-0.07227 -6.15285,-0.160599 -0.57936,-0.222322 -0.52351,-0.985288 0.11439,-1.562574 0.72783,-0.658677 2.23867,-2.969757 3.17449,-4.855929 0.42571,-0.858018 0.96606,-1.633726 1.20078,-1.723798 0.23472,-0.09007 3.951146,-0.163766 8.258716,-0.163766 h 7.831946 l 6.25325,6.217708 6.25325,6.217705 h 5.82488 5.824882 l 0.63964,0.9684 c 2.12301,3.21418 6.91583,2.03271 7.29416,-1.79807 0.21572,-2.184275 -1.76655,-4.3107 -4.00769,-4.299148 -1.28377,0.0066 -2.74634,0.865129 -3.38744,1.988376 -0.74155,1.29926 -0.99537,1.345086 -6.867982,1.239998 l -4.69022,-0.08393 -4.63977,-4.630208 c -3.33944,-3.332544 -4.61917,-4.778513 -4.56623,-5.159375 0.0712,-0.512519 0.32527,-0.533328 8.07525,-0.661458 l 8.00168,-0.132292 5.507002,-5.502719 5.507,-5.502719 1.72299,0.176527 c 2.5507,0.261326 4.00577,-0.615765 4.75011,-2.863276 0.43421,-1.31106 -0.0567,-2.853377 -1.23855,-3.891026 -2.8916,-2.538864 -7.06261,-0.140036 -6.58518,3.78727 l 0.16539,1.360527 -5.39212,5.35976 -5.392122,5.359759 -17.18124,-0.06809 -17.181232,-0.06809 0.0737,-1.058333 c 0.0405,-0.582084 0.0864,-3.112162 0.10194,-5.622396 l 0.0282,-4.564062 h 7.871276 7.871276 l 0.47343,0.72254 c 0.73275,1.118322 1.47312,1.617697 2.67644,1.805252 1.41585,0.220681 2.704,-0.209254 3.68037,-1.228365 0.69862,-0.7292 0.77124,-0.975776 0.77124,-2.618402 0,-1.569122 -0.0891,-1.908754 -0.66145,-2.521307 -2.06542,-2.210472 -5.00994,-1.901748 -6.60629,0.69265 l -0.79716,1.295549 -7.8738,-0.004 c -4.330589,-0.0021 -8.007682,-0.09152 -8.171322,-0.198437 -0.16364,-0.106916 -0.56965,-0.849233 -0.90225,-1.649598 -1.51988,-3.657401 -5.17667,-7.991683 -8.57844,-10.167767 -0.80891,-0.51745 -1.46658,-1.13423 -1.46658,-1.37538 0,-0.64618 5.01554,-5.65477 5.66261,-5.65477 0.34109,0 2.23224,1.6863 5.19268,4.63021 l 4.656203,4.630208 h 9.459345 9.459354 l 1.28856,1.322916 c 1.24984,1.283161 1.33405,1.322917 2.80212,1.322917 1.21499,0 1.68816,-0.133178 2.39871,-0.675135 1.7298,-1.319387 2.15196,-3.304913 1.10047,-5.175796 -0.60877,-1.08315 -2.23942,-2.08657 -3.39088,-2.08657 -1.15656,0 -2.86836,1.04374 -3.47133,2.11659 -0.31405,0.55876 -0.82233,1.083396 -1.12952,1.16585 -0.30719,0.08245 -4.42013,0.151546 -9.139864,0.153533 l -8.581339,0.0036 -4.449389,-4.421603 c -2.44717,-2.43188 -4.4494,-4.6126 -4.4494,-4.84605 0,-0.23345 1.11506,-1.51794 2.47791,-2.85444 l 2.4779,-2.42999 H 51.415788 69.96617 l 0.45182,0.72761 c 1.08475,1.74686 2.49715,2.71197 3.96885,2.71197 1.02356,0 2.63523,-0.96629 3.23778,-1.94123 1.96908,-3.18605 -1.18922,-7.18198 -4.63606,-5.86562 -0.68751,0.26257 -1.47249,0.85159 -1.96707,1.47606 l -0.82301,1.03913 H 51.125448 32.052416 l -6.95739,6.92542 -6.95739,6.92541 -2.58849,-0.60015 c -1.42367,-0.33008 -2.88615,-0.68115 -3.24995,-0.78015 l -0.66146,-0.18001 -0.0695,-9.77695 -0.0695,-9.77694 4.14035,-4.14642 4.14035,-4.14642 1.93165,-0.0975 c 1.61372,-0.0815 2.04741,-0.2057 2.63498,-0.7547 1.53526,-1.43446 1.86438,-3.28175 0.89271,-5.0106 -1.51818,-2.70124 -5.31203,-2.69959 -6.83096,0.003 -0.60713,1.08026 -0.65732,2.35778 -0.15325,3.90128 0.17425,0.53354 -0.3509,1.16244 -4.23149,5.06741 l -4.43042,4.45826 0.0435,9.38594 c 0.0239,5.16227 -0.0327,9.68965 -0.12584,10.06084 -0.21259,0.84701 -0.29262,0.8752 -3.56308,1.25541 l -2.69839,0.31371 -5.74124,-5.71963 -5.74123,-5.71963 h -14.012471 -14.012469 l -3.93353,-3.9401 c -3.83652,-3.84293 -3.92896,-3.96201 -3.74807,-4.82865 0.50041,-2.39749 0.46705,-3.2475 -0.16413,-4.18153 -1.24914,-1.84849 -3.51813,-2.4598 -5.2897,-1.42514 -3.76022,2.19609 -2.09701,7.49625 2.35236,7.49625 h 1.26993 l 4.50978,4.49792 4.50977,4.49792 h 14.021129 14.021131 l 4.74981,4.76787 c 2.61239,2.62233 4.7498,4.95844 4.7498,5.19136 0,0.23633 -0.58461,0.73982 -1.32291,1.13933 -0.72761,0.39372 -1.73964,0.97419 -2.24896,1.289946 -0.91939,0.56997 -1.02573,0.574101 -14.805991,0.575082 l -13.87995,0.0011 -3.99867,-3.968748 -3.998669,-3.96875 h -12.58321 -12.5832 l -0.72351,-0.94857 c -1.48459,-1.9464 -3.2197,-2.42262 -5.18105,-1.42201 -1.42803,0.72852 -2.09352,1.88313 -2.09476,3.63431 -9.3e-4,1.29451 0.0824,1.47945 1.14628,2.5433 2.08314,2.08314 4.75002,1.70659 6.39758,-0.90331 l 0.66387,-1.05164 h 12.08212 12.08213 l 3.99049,3.96063 3.990479,3.960625 3.56612,0.07427 c 3.14853,0.06557 3.57649,0.128376 3.65474,0.536342 0.058,0.302093 -0.92791,1.470057 -2.84745,3.373437 l -2.93609,2.911295 h -11.609079 -11.60908 l -0.5551,-0.940832 c -0.71032,-1.203888 -2.59332,-2.094552 -3.95951,-1.87285 -2.58853,0.420061 -4.25299,3.46165 -3.10342,5.671092 0.91008,1.749158 2.86717,2.674162 4.57518,2.162432 1.25295,-0.375394 1.65004,-0.673381 2.45838,-1.844842 0.35145,-0.509323 0.7638,-1.013515 0.91633,-1.120428 0.15253,-0.106913 5.51608,-0.197959 11.919,-0.202324 l 11.641659,-0.0079 4.39457,-4.361738 4.39456,-4.361735 h 7.180961 c 7.13067,0 7.18096,0.0039 7.18096,0.558593 0,0.307226 -0.4543,1.110898 -1.00956,1.785938 -1.11998,1.361585 -2.29822,3.254446 -3.15205,5.063802 -0.37846,0.801978 -2.12372,2.74521 -5.346641,5.953124 l -4.78477,4.7625 h -13.05554 -13.055539 l -0.75383,-0.895871 c -1.37557,-1.634776 -3.37746,-2.049653 -5.13197,-1.063564 -3.50472,1.969767 -2.07629,7.383393 1.94818,7.383393 1.44962,0 2.72939,-0.839711 3.55273,-2.331098 l 0.61831,-1.119992 4.91612,0.0719 c 3.41117,0.04989 4.94707,0.164992 5.01725,0.375994 0.0556,0.167251 -1.8038,2.221079 -4.13206,4.564062 l -4.2332,4.259967 h -12.31311 -12.3131 l -0.66387,-1.05164 c -0.36513,-0.578403 -0.93217,-1.22723 -1.26009,-1.441836 -0.85975,-0.562663 -2.57023,-0.727242 -3.61382,-0.347713 -1.13542,0.412925 -2.3785,1.935353 -2.57651,3.155487 -0.21175,1.304909 0.67251,3.220048 1.8058,3.910989 1.84584,1.12537 4.7324,0.440997 5.6536,-1.340414 l 0.39726,-0.768207 h 12.65952 12.65952 l 5.65608,-5.682972 5.656079,-5.682972 6.59184,-0.0056 6.59185,-0.0056 3.34253,-3.307292 c 3.461444,-3.460302 4.142594,-3.799718 4.310681,0.06615 0.0984,2.3201 0.33726,4.098232 0.76483,5.694675 l 0.62167,2.321234 -5.970531,5.946994 -5.97054,5.947015 h -8.74679 c -9.454349,0 -9.007199,0.0651 -9.728199,-1.417277 -0.15169,-0.311901 -0.81118,-0.842415 -1.46553,-1.17892 -4.13896,-2.128485 -7.90569,3.337507 -4.45601,6.466217 1.81393,1.64516 4.07563,1.3565 5.84889,-0.74649 l 1.0721,-1.27144 h 9.161889 9.16189 l 1.43714,-1.45521 c 0.79042,-0.80037 1.62547,-1.45521 1.85566,-1.45521 0.2302,0 1.99044,1.58745 3.911641,3.52767 l 3.49311,3.52767 v 7.97216 7.97217 l -0.96258,0.65409 c -1.38558,0.94153 -1.94404,1.92095 -1.94609,3.41302 -0.003,2.47344 1.47996,4.00286 3.88229,4.00286 2.35129,0 3.91741,-1.57677 3.88368,-3.9101 -0.024,-1.65998 -0.5608,-2.60434 -1.99507,-3.50975 l -1.01014,-0.63768 v -8.37735 -8.37735 l -3.83646,-3.8673 c -2.110061,-2.12703 -3.836461,-3.979708 -3.836461,-4.11708 0,-0.457668 6.466891,-6.739696 6.938021,-6.739696 0.25886,0 0.77413,0.496702 1.1665,1.124479 2.46074,3.936997 5.47591,6.605111 9.87701,8.740117 1.53355,0.74392 2.87573,1.47787 2.98265,1.63098 0.10691,0.15311 0.19621,3.85129 0.19843,8.21819 l 0.004,7.9398 5.67526,5.67066 5.67527,5.67066 -0.0529,2.04326 c -0.061,2.35782 0.32824,3.12844 2.08868,4.13511 1.21791,0.69644 1.84299,0.73888 3.05166,0.20718 z m -2.92505,-2.42132 c -0.7599,-0.96606 -0.68791,-1.84986 0.22503,-2.7628 0.87194,-0.87195 1.30711,-0.9425 2.38268,-0.38631 0.82808,0.42822 1.07725,0.88381 1.07725,1.96968 0,1.74412 -2.58897,2.57276 -3.68496,1.17943 z m 2.47718,-0.60682 c 0.5916,-0.65371 0.32965,-1.55115 -0.51461,-1.76305 -1.15663,-0.29029 -1.95358,0.75969 -1.29273,1.70318 0.49501,0.70673 1.20078,0.7301 1.80734,0.0599 z m -31.95642,-5.26531 c -0.6145,-0.67902 -0.56444,-2.30001 0.0913,-2.95573 0.63875,-0.63875 2.02561,-0.6958 2.85154,-0.11729 0.76833,0.53816 0.83252,2.45985 0.10418,3.11899 -0.6678,0.60436 -2.48326,0.57697 -3.04701,-0.046 z m 2.41962,-0.6274 c 0.84957,-0.84957 -0.10229,-2.30207 -1.26646,-1.93258 -0.65018,0.20636 -0.90671,1.02208 -0.53806,1.71092 0.31895,0.59596 1.30865,0.71753 1.80452,0.22166 z m 70.299792,-4.47504 c -1.30134,-0.73857 -1.56487,-2.06865 -0.64225,-3.24157 1.17824,-1.49789 3.68496,-0.52791 3.68496,1.4259 0,1.46037 -1.78839,2.52755 -3.04271,1.81567 z m 1.71979,-1.02829 c 0.29104,-0.29104 0.52917,-0.64823 0.52917,-0.79375 0,-0.34315 -0.97977,-1.32292 -1.32292,-1.32292 -0.14552,0 -0.5,0.23542 -0.78775,0.52317 -0.56284,0.56284 -0.47281,1.22589 0.24219,1.78352 0.5674,0.44252 0.72981,0.41948 1.33931,-0.19002 z M 29.100276,53.68711 c -0.81074,-0.44344 -1.19063,-1.043 -1.19063,-1.87911 0,-1.0843 0.39751,-1.68646 1.32724,-2.01056 0.97989,-0.34159 1.88913,-0.0494 2.48252,0.79778 0.63043,0.90007 0.51604,1.75815 -0.34982,2.62401 -0.81903,0.81903 -1.40603,0.94005 -2.26931,0.46788 z m 1.83358,-1.33586 c 0.34742,-0.49601 0.35501,-0.66385 0.0508,-1.12448 -0.45968,-0.69608 -1.30341,-0.82005 -1.85143,-0.27203 -0.54129,0.54128 -0.54571,1.03216 -0.0141,1.56378 0.58559,0.58558 1.3358,0.51643 1.81469,-0.16727 z m -77.73331,-12.66532 c -1.65126,-1.29888 -0.16388,-4.016673 1.94475,-3.553541 0.41733,0.09166 0.94613,0.452591 1.17511,0.802061 1.40059,2.13757 -1.09844,4.34152 -3.11986,2.75148 z m 2.34654,-0.77562 c 0.39649,-0.43813 0.42759,-0.64497 0.17897,-1.19063 -0.37028,-0.81267 -1.35464,-0.87972 -2.02589,-0.138 -0.4427,0.48918 -0.44492,0.56487 -0.0349,1.19063 0.52733,0.80481 1.23163,0.85645 1.88183,0.138 z M 74.11513,38.09843 c -0.54171,-0.42611 -0.69714,-0.78005 -0.69714,-1.5875 0,-1.322193 0.72264,-2.097467 1.95506,-2.097467 1.13056,0 1.96466,0.680477 2.17613,1.775338 0.13729,0.710779 0.0329,0.980479 -0.64031,1.653649 -0.94437,0.94437 -1.81695,1.02433 -2.79374,0.25598 z m 2.16036,-0.82747 c 1.02764,-1.027639 -0.45687,-2.642192 -1.53351,-1.667846 -0.90829,0.821996 -0.52133,1.985346 0.66038,1.985346 0.30559,0 0.6985,-0.14287 0.87313,-0.3175 z M 5.552326,37.60043 c -10.70727,-2.290268 -17.78036,-12.040584 -16.55286,-22.818274 0.30709,-2.696229 0.67035,-4.065185 1.6835,-6.344155 1.89132,-4.25436 5.96127,-8.301323 10.32188,-10.263589 3.17896,-1.430522 4.51052,-1.692262 8.64855,-1.699962 3.49694,-0.007 4.03405,0.0581 6.06911,0.72973 2.72475,0.899294 3.90993,1.484383 5.96944,2.946947 2.85473,2.027298 5.56645,5.27463 6.84824,8.200879 0.25497,0.582083 0.5705,1.296458 0.70117,1.5875 1.2011,2.675218 1.48712,9.147725 0.55304,12.515616 -1.29991,4.686978 -3.93658,8.534461 -7.83787,11.437175 -1.87204,1.392875 -3.43183,2.203897 -5.84249,3.037843 -1.81805,0.62893 -2.5847,0.7361 -5.79918,0.8107 -2.03729,0.0473 -4.18043,-0.0159 -4.76253,-0.14041 z m 9.48376,-1.311849 c 3.43662,-1.004099 6.17406,-2.639396 8.7214,-5.209995 2.70046,-2.725121 4.20831,-5.437658 5.24422,-9.434009 0.78424,-3.025468 0.60614,-7.567671 -0.41745,-10.646738 -1.95152,-5.870397 -6.74689,-10.762101 -12.43366,-12.683457 -1.77384,-0.599322 -5.04515,-1.207082 -6.4972,-1.207082 -2.89936,0 -7.03808,1.160708 -10.00123,2.804853 -2.32134,1.28802 -6.00413,4.960667 -7.26925,7.249228 -6.75438,12.218421 0.25972,27.172895 13.89375,29.622289 2.0963,0.37661 6.6585,0.11875 8.75942,-0.495089 z m -9.18079,-4.410882 c -4.04857,-0.980059 -7.80345,-4.023778 -9.68766,-7.852865 -1.31638,-2.675149 -1.69809,-4.628692 -1.51699,-7.763882 0.21163,-3.66391 1.54989,-6.717263 4.09992,-9.354354 0.85975,-0.889109 1.53961,-1.342596 2.19496,-1.464106 1.97366,-0.365948 3.94213,1.259795 3.94439,3.257637 10e-4,1.057894 -0.32372,1.719019 -1.48095,3.013392 -1.67163,1.86975 -2.08615,2.989276 -2.08615,5.634318 0,1.97282 0.10375,2.576163 0.60488,3.517651 0.9316,1.750237 2.33309,3.140525 3.97885,3.947057 1.28368,0.629094 1.81952,0.733432 3.74685,0.729585 1.98647,-0.004 2.41413,-0.09526 3.66405,-0.782166 2.95483,-1.62387 4.67919,-4.489392 4.61952,-7.67671 -0.0363,-1.937602 -0.70285,-3.563978 -2.14242,-5.227275 -1.23735,-1.429644 -1.54364,-2.46692 -1.1134,-3.770564 0.44913,-1.360871 1.74366,-2.246953 3.28271,-2.246953 1.15679,0 1.35349,0.104434 2.6628,1.413748 3.11259,3.112588 4.55188,7.971295 3.73302,12.601805 -1.03909,5.875837 -5.34066,10.525712 -11.13298,12.034416 -1.91571,0.498981 -5.28607,0.494073 -7.3714,-0.01074 z m 1.84413,-14.685515 c -1.41941,-1.116504 -1.48569,-1.50763 -1.48462,-8.760893 7.9e-4,-6.247267 0.0366,-6.752301 0.53496,-7.569686 1.14552,-1.87887 3.80797,-2.088785 5.27668,-0.416023 l 0.80195,0.913378 v 7.015393 c 0,7.712019 -0.0853,8.196677 -1.57884,8.969006 -1.11837,0.578335 -2.70882,0.510609 -3.55013,-0.151175 z m -83.59458,15.153396 c -0.23911,-0.26421 -0.50962,-0.854752 -0.60113,-1.312314 -0.13873,-0.69364 -0.0327,-0.965645 0.63796,-1.636287 1.03544,-1.035439 1.96791,-1.045117 2.98208,-0.03095 0.90932,0.90932 0.95904,1.432422 0.24713,2.600039 -0.46245,0.758476 -0.66034,0.859896 -1.6778,0.859896 -0.77844,0 -1.29486,-0.156197 -1.58824,-0.480384 z m 2.3182,-0.729141 c 0.79915,-0.79915 0.33935,-1.965476 -0.77485,-1.965476 -1.59848,0 -1.55205,2.33194 0.0472,2.373204 0.17151,0.0044 0.49893,-0.179051 0.72761,-0.407728 z m 21.11385,-9.550892 c -0.59343,-0.238765 -1.16326,-1.664493 -0.98665,-2.468607 0.51476,-2.343687 4.10107,-1.904603 4.10107,0.502108 0,1.611185 -1.55586,2.59358 -3.11442,1.966499 z m 1.73263,-1.028544 c 0.75139,-0.52629 0.75139,-1.295788 0,-1.822079 -0.73238,-0.512982 -0.86092,-0.512617 -1.37743,0.0039 -0.53103,0.531027 -0.53103,1.283259 0,1.814285 0.51651,0.516514 0.64505,0.51688 1.37743,0.0039 z M 50.928408,12.534015 c -1.1436,-0.40871 -1.46993,-2.579793 -0.52917,-3.520551 0.75773,-0.757732 2.13205,-0.696238 2.90839,0.130138 1.57521,1.676731 -0.17915,4.176699 -2.37922,3.390413 z m 1.63281,-1.048017 c 0.63847,-0.577813 0.61318,-1.293609 -0.0624,-1.766827 -1.20803,-0.846132 -2.42263,0.587643 -1.42844,1.686203 0.57258,0.632698 0.86345,0.648428 1.49087,0.08062 z m 26.833412,0.152998 c -0.37674,-0.447725 -0.68498,-1.052198 -0.68498,-1.343268 0,-0.772383 1.41223,-2.076014 2.24896,-2.076014 0.83673,0 2.24896,1.303631 2.24896,2.076014 0,0.29107 -0.30824,0.895543 -0.68498,1.343268 -0.51177,0.608203 -0.90725,0.814051 -1.56398,0.814051 -0.65673,0 -1.05221,-0.205848 -1.56398,-0.814051 z m 2.71165,-1.155475 c 0.0947,-0.478068 -0.64874,-1.470057 -1.1017,-1.470057 -0.45689,0 -1.23659,0.850532 -1.23659,1.34892 0,0.260236 0.26236,0.656929 0.58304,0.881536 0.49682,0.347985 0.66311,0.355312 1.12448,0.04953 0.29779,-0.197363 0.58163,-0.561834 0.63077,-0.809934 z M -59.382544,10.18057 c -1.13886,-0.958286 -1.12807,-2.178753 0.0279,-3.151401 0.65917,-0.554657 1.01809,-0.674444 1.65364,-0.551889 1.82616,0.352142 2.36049,2.49433 0.92373,3.70329 -0.44773,0.376738 -1.03391,0.684977 -1.30262,0.684977 -0.26871,0 -0.85489,-0.308239 -1.30261,-0.684977 z m 2.22963,-0.903597 c 0.39649,-0.438126 0.42759,-0.644966 0.17897,-1.190625 -0.52107,-1.143621 -2.16432,-0.741037 -2.16432,0.530241 0,1.181714 1.16335,1.568678 1.98535,0.660384 z M 57.589108,0.4636 c -0.98945,-1.053219 -0.73185,-2.59585 0.54361,-3.25541 1.43558,-0.74237 3.11444,0.27492 3.11444,1.88717 0,1.782974 -2.41857,2.687606 -3.65805,1.36824 z m 2.50298,-0.859981 c 0.42332,-0.646065 0.41842,-0.704807 -0.10212,-1.225349 -1.11497,-1.11498 -2.8215,0.230032 -1.76836,1.393738 0.63557,0.702302 1.34163,0.638739 1.87048,-0.168389 z M -70.204644,-6.68015 c -0.78883,-0.83967 -0.75636,-2.14103 0.0741,-2.97153 0.83549,-0.8355 1.74862,-0.82378 2.76985,0.0355 0.97391,0.81948 1.06816,1.83102 0.26569,2.85121 -0.73247,0.93118 -2.27502,0.97323 -3.10968,0.0848 z m 2.49975,-0.85512 c 0.30418,-0.46062 0.29659,-0.62846 -0.0508,-1.12447 -0.56602,-0.80811 -1.62868,-0.7673 -2.01353,0.0773 -0.6154,1.35066 1.2418,2.29272 2.06436,1.04713 z M 73.0568,-15.08282 c -0.55879,-0.43954 -0.69714,-0.77272 -0.69714,-1.67878 0,-1.39336 0.59232,-2.00618 1.93905,-2.00618 1.31129,0 2.02969,0.74239 2.02969,2.09746 0,0.80745 -0.15543,1.16139 -0.69714,1.5875 -0.38342,0.3016 -0.96268,0.54837 -1.28723,0.54837 -0.32455,0 -0.90381,-0.24677 -1.28723,-0.54837 z m 2.21862,-1.04912 c 0.39983,-0.74711 0.0842,-1.54496 -0.68788,-1.73873 -0.78761,-0.19768 -1.43413,0.28322 -1.43413,1.06674 0,1.19939 1.57313,1.69756 2.12201,0.67199 z m -124.188594,-9.63467 c -1.45449,-1.34798 -0.54749,-3.58451 1.45365,-3.58451 1.17521,0 2.07959,0.89331 2.07959,2.05411 0,0.62959 -0.21316,0.99197 -0.88487,1.5043 -1.10814,0.84522 -1.75761,0.85162 -2.64837,0.0261 z m 2.15145,-0.82138 c 0.70194,-0.49166 0.73687,-0.83722 0.15016,-1.48552 -0.58146,-0.64251 -1.29435,-0.61213 -1.77611,0.0757 -0.39735,0.5673 -0.3067,1.2652 0.21032,1.61923 0.42928,0.29394 0.7687,0.24374 1.41563,-0.20939 z m 67.04458,-9.46091 c -1.29894,-1.38266 -0.39859,-3.35638 1.53107,-3.35638 1.28808,0 2.12697,0.78414 2.12697,1.98814 0,1.78298 -2.41856,2.68761 -3.65804,1.36824 z m 2.42317,-0.72767 c 0.47173,-0.67349 0.2878,-1.49941 -0.38119,-1.71174 -1.28914,-0.40915 -2.26565,0.80177 -1.40949,1.74782 0.59996,0.66295 1.3111,0.64862 1.79068,-0.0361 z"
       id="path77"
       inkscape:connector-curvature="0"
       sodipodi:nodetypes="cccccccsscccccccsccscccccccccccccsssccccccccccccccccccccsccccccssscssccccscccccccccsccsccccccccccccsscscccccccccsscccccsscsccccccccccccccccccccsccccccscssccccccccccccccccscccscccsscccccccsccccccsccccccccsccccccccccccccccccccccccccccccccccccccccccssccccccccccssccccccccccccscscccccccccssscscccccsssccccscccsccccsccccccsccscccsccccccccccccccccccscscscccccsssccccsccscccccssccccsccccccccccccccccccccscccccccccscccsccccccsccccccccscccccccccsccccccscccsccccssccscccccsccscscccccsccccccccccccccccsccccccccsccccccsccccccsscccccccccccsccsscccccccsccccscccssccssccccscccccccccccccccscccccsscccccsccccsccccsccsscsscscsccsscscccccscccccccsccccccccccscccccccsccscccscssccccccccscccccccssscsccssccccccscscccsscccscccccccccccccccccssscscccsccssccccccccssssccscc"
       transform="matrix(0.32587756,0,0,0.32587756,43.338955,72.810539)" />
  </g>
  <g
     inkscape:groupmode="layer"
     id="layer8"
     inkscape:label="TITRE"
     sodipodi:insensitive="true">
    <g
       aria-label="titre"
       transform="matrix(0.26458333,0,0,0.26458333,-13.938106,-8.6996231)"
       style="font-style:normal;font-variant:normal;font-weight:normal;font-stretch:normal;font-size:17.33333397px;line-height:1.25;font-family:'Planet Kosmos';-inkscape-font-specification:'Planet Kosmos';font-variant-ligatures:normal;font-variant-caps:normal;font-variant-numeric:oldstyle-nums;font-feature-settings:normal;text-align:start;writing-mode:lr-tb;text-anchor:start;opacity:1;fill:#24221c;fill-opacity:1;stroke:none;stroke-width:4.15748024;stroke-linecap:square;stroke-linejoin:miter;stroke-miterlimit:4;stroke-dasharray:none;stroke-dashoffset:0;stroke-opacity:1"
       id="flowRoot892">
      <path
         d="m 204.95223,213.27402 q 0.208,-0.34666 0.58933,-0.58933 0.38134,-0.24267 0.728,-0.24267 v 0 q 0.29467,0 0.65867,-0.12133 0.45067,-0.156 0.45067,-0.416 0,-0.29467 -0.624,-0.29467 v 0 q -0.48534,0 -0.48534,-0.416 0,-0.19066 0.12134,-0.416 l 0.97066,-1.664 q 0.12134,-0.22533 0.12134,-0.416 0,-0.416 -0.468,-0.416 h -4.16 q -0.34667,0 -0.74534,0.24267 -0.38133,0.24267 -0.572,0.58933 l -8.04266,13.936 q -0.26,0.43334 -0.26,0.936 0,0.26 0.104,0.43334 l 2.288,3.9 q 0.104,0.17333 0.26,0.17333 0.29466,0 0.55466,-0.45067 z"
         style="font-style:normal;font-variant:normal;font-weight:normal;font-stretch:normal;font-size:17.33333397px;font-family:'Planet Kosmos';-inkscape-font-specification:'Planet Kosmos'"
         id="path900"
         inkscape:connector-curvature="0" />
      <path
         d="m 205.53872,222.42602 q 0.32933,0 0.71067,-0.24266 0.39866,-0.24267 0.58933,-0.58934 l 4.33333,-7.488 q 0.12134,-0.22533 0.12134,-0.416 0,-0.416 -0.468,-0.416 h -4.16 q -0.34667,0 -0.74534,0.24267 -0.38133,0.24267 -0.572,0.58933 l -4.33333,7.488 q -0.12133,0.22534 -0.12133,0.416 0,0.416 0.48533,0.416 z"
         style="font-style:normal;font-variant:normal;font-weight:normal;font-stretch:normal;font-size:17.33333397px;font-family:'Planet Kosmos';-inkscape-font-specification:'Planet Kosmos'"
         id="path902"
         inkscape:connector-curvature="0" />
      <path
         d="m 218.39233,213.27402 q 0.208,-0.34666 0.58934,-0.58933 0.38133,-0.24267 0.728,-0.24267 v 0 q 0.29466,0 0.65866,-0.12133 0.45067,-0.156 0.45067,-0.416 0,-0.29467 -0.624,-0.29467 v 0 q -0.48533,0 -0.48533,-0.416 0,-0.19066 0.12133,-0.416 l 0.97067,-1.664 q 0.12133,-0.22533 0.12133,-0.416 0,-0.416 -0.468,-0.416 h -4.16 q -0.34667,0 -0.74533,0.24267 -0.38134,0.24267 -0.572,0.58933 l -8.04267,13.936 q -0.26,0.43334 -0.26,0.936 0,0.26 0.104,0.43334 l 2.288,3.9 q 0.104,0.17333 0.26,0.17333 0.29467,0 0.55467,-0.45067 z"
         style="font-style:normal;font-variant:normal;font-weight:normal;font-stretch:normal;font-size:17.33333397px;font-family:'Planet Kosmos';-inkscape-font-specification:'Planet Kosmos'"
         id="path904"
         inkscape:connector-curvature="0" />
      <path
         d="m 220.00596,213.27402 q -0.34667,0 -0.74533,0.24267 -0.38134,0.24267 -0.572,0.58933 l -4.33334,7.488 q -0.12133,0.22534 -0.12133,0.416 0,0.416 0.48533,0.416 h 4.16 q 0.32934,0 0.71067,-0.24266 0.39867,-0.24267 0.58933,-0.58934 l 3.848,-6.656 q 0.208,-0.34666 0.58934,-0.58933 0.38133,-0.24267 0.728,-0.24267 v 0 q 0.468,0 0.468,0.416 0,0.19067 -0.12134,0.416 l -0.48533,0.832 q -0.12133,0.22534 -0.12133,0.416 0,0.416 0.48533,0.416 h 4.16 q 0.32933,0 0.71067,-0.24266 0.39866,-0.24267 0.58933,-0.58934 l 0.97067,-1.664 q 0.12133,-0.22533 0.12133,-0.416 0,-0.416 -0.468,-0.416 z"
         style="font-style:normal;font-variant:normal;font-weight:normal;font-stretch:normal;font-size:17.33333397px;font-family:'Planet Kosmos';-inkscape-font-specification:'Planet Kosmos'"
         id="path906"
         inkscape:connector-curvature="0" />
      <path
         d="m 237.06534,218.26602 h 5.824 q 0.34667,0 0.728,-0.24266 0.39867,-0.24267 0.58934,-0.58934 l 1.924,-3.328 q 0.12133,-0.22533 0.12133,-0.416 0,-0.416 -0.468,-0.416 h -11.648 q -0.34667,0 -0.74533,0.24267 -0.38134,0.24267 -0.572,0.58933 l -4.33334,7.488 q -0.12133,0.22534 -0.12133,0.416 0,0.416 0.48533,0.416 h 11.648 q 0.32934,0 0.71067,-0.24266 0.39867,-0.24267 0.58933,-0.58934 l 0.97067,-1.664 q 0.12133,-0.22533 0.12133,-0.416 0,-0.416 -0.468,-0.416 h -4.16 q -0.34666,0 -0.74533,0.24267 -0.38133,0.24267 -0.572,0.58933 l -0.48533,0.832 q -0.19067,0.34667 -0.58934,0.58934 -0.38133,0.24266 -0.728,0.24266 -0.468,0 -0.468,-0.416 0,-0.19066 0.12134,-0.416 l 0.97066,-1.664 q 0.19067,-0.34666 0.572,-0.58933 0.38134,-0.24267 0.728,-0.24267 z m 1.092,-3.328 q 0.208,-0.34666 0.58934,-0.58933 0.38133,-0.24267 0.728,-0.24267 0.468,0 0.468,0.416 0,0.19067 -0.12134,0.416 l -0.95333,1.664 q -0.208,0.34667 -0.58933,0.58934 -0.38134,0.24266 -0.728,0.24266 -0.48534,0 -0.48534,-0.416 0,-0.19066 0.13867,-0.416 z"
         style="font-style:normal;font-variant:normal;font-weight:normal;font-stretch:normal;font-size:17.33333397px;font-family:'Planet Kosmos';-inkscape-font-specification:'Planet Kosmos'"
         id="path908"
         inkscape:connector-curvature="0" />
    </g>
  </g>
  <g
     inkscape:groupmode="layer"
     id="layer7"
     inkscape:label="Pointeur sommaire"
     sodipodi:insensitive="true">
    <path
       style="opacity:1;fill:url(#linearGradient889);fill-opacity:1;stroke:none;stroke-width:0.24905659;stroke-linecap:square;stroke-linejoin:miter;stroke-miterlimit:4;stroke-dasharray:none;stroke-dashoffset:0;stroke-opacity:1"
       id="path853"
       sodipodi:type="arc"
       sodipodi:cx="114.73551"
       sodipodi:cy="70.00592"
       sodipodi:rx="2.4804685"
       sodipodi:ry="2.4804685"
       sodipodi:start="4.712389"
       sodipodi:end="1.5707963"
       d="m 114.73551,67.525452 a 2.4804685,2.4804685 0 0 1 2.48047,2.480468 2.4804685,2.4804685 0 0 1 -2.48047,2.480469 l 0,-2.480469 z" />
    <rect
       style="opacity:1;fill:url(#linearGradient887);fill-opacity:1;stroke:none;stroke-width:1.64103234;stroke-linecap:square;stroke-linejoin:miter;stroke-miterlimit:4;stroke-dasharray:none;stroke-dashoffset:0;stroke-opacity:1"
       id="rect857"
       width="40.024014"
       height="4.9609375"
       x="74.711716"
       y="67.54837" />
  </g>
  <g
     inkscape:groupmode="layer"
     id="layer3"
     inkscape:label="SommaireTitre"
     sodipodi:insensitive="true">
    <g
       inkscape:groupmode="layer"
       id="layer4"
       inkscape:label="Frames"
       style="display:inline"
       sodipodi:insensitive="true">
      <rect
         y="53.22245"
         x="81.537575"
         height="47.625"
         width="63.5"
         id="rect-sommaire_title"
         style="display:inline;fill:none;stroke:#ff0000;stroke-width:0.26458332;stroke-linecap:round;stroke-linejoin:round;stroke-miterlimit:4;stroke-dasharray:none;stroke-dashoffset:0;stroke-opacity:1"
         inkscape:label="#rect4059" />
    </g>
    <text
       xml:space="preserve"
       style="font-style:normal;font-variant:normal;font-weight:normal;font-stretch:normal;font-size:3.52777767px;line-height:1.25;font-family:Gabriola;-inkscape-font-specification:Gabriola;font-variant-ligatures:normal;font-variant-caps:normal;font-variant-numeric:oldstyle-nums;font-feature-settings:normal;text-align:start;writing-mode:lr-tb;text-anchor:start;display:inline;opacity:1;fill:#140000;fill-opacity:1;stroke:none;stroke-width:1.10000002;stroke-linecap:square;stroke-linejoin:miter;stroke-miterlimit:4;stroke-dasharray:none;stroke-dashoffset:0;stroke-opacity:1"
       x="83.12571"
       y="57.771816"
       id="text2731"><tspan
         sodipodi:role="line"
         id="tspan2729"
         x="83.12571"
         y="57.771816"
         style="font-style:normal;font-variant:normal;font-weight:normal;font-stretch:normal;font-size:4.23333311px;font-family:Impact;-inkscape-font-specification:Impact;stroke-width:1.10000002">sommaire :</tspan></text>
  </g>
  <g
     inkscape:groupmode="layer"
     id="layer5"
     inkscape:label="Sommaire"
     sodipodi:insensitive="true">
    <g
       inkscape:groupmode="layer"
       id="layer6"
       inkscape:label="Frames"
       sodipodi:insensitive="true">
      <rect
         y="53.22245"
         x="81.537575"
         height="47.625"
         width="63.5"
         id="rect-somaire-title02"
         style="display:inline;fill:none;stroke:#ff0000;stroke-width:0.26458332;stroke-linecap:round;stroke-linejoin:round;stroke-miterlimit:4;stroke-dasharray:none;stroke-dashoffset:0;stroke-opacity:1"
         inkscape:label="#rect4059" />
      <rect
         y="58.972889"
         x="101.66999"
         height="69.361328"
         width="92.481773"
         id="rect-background-4"
         style="display:inline;fill:none;stroke:#ff0000;stroke-width:0.38534069;stroke-linecap:round;stroke-linejoin:round;stroke-miterlimit:4;stroke-dasharray:none;stroke-dashoffset:0;stroke-opacity:1"
         inkscape:label="#rect4059" />
    </g>
    <flowRoot
       xml:space="preserve"
       id="flowRoot837"
       style="font-style:normal;font-variant:normal;font-weight:normal;font-stretch:normal;font-size:12px;line-height:1.25;font-family:'MS PGothic';-inkscape-font-specification:'MS PGothic';font-variant-ligatures:normal;font-variant-caps:normal;font-variant-numeric:oldstyle-nums;font-feature-settings:normal;text-align:start;writing-mode:lr-tb;text-anchor:start;opacity:1;fill:#140000;fill-opacity:1;stroke:none;stroke-width:4.15748024;stroke-linecap:square;stroke-linejoin:miter;stroke-miterlimit:4;stroke-dasharray:none;stroke-dashoffset:0;stroke-opacity:1"
       transform="scale(0.26458333)"><flowRegion
         id="flowRegion839"
         style="font-style:normal;font-variant:normal;font-weight:normal;font-stretch:normal;font-family:'MS PGothic';-inkscape-font-specification:'MS PGothic'"><rect
           id="rect841"
           width="162.96602"
           height="127.61067"
           x="313.77863"
           y="233.66438"
           style="font-style:normal;font-variant:normal;font-weight:normal;font-stretch:normal;font-family:'MS PGothic';-inkscape-font-specification:'MS PGothic'" /></flowRegion><flowPara
         id="flowPara843" /></flowRoot>    <text
       xml:space="preserve"
       style="font-style:normal;font-variant:normal;font-weight:normal;font-stretch:normal;font-size:3.17499995px;line-height:1.25;font-family:'MS PGothic';-inkscape-font-specification:'MS PGothic';font-variant-ligatures:normal;font-variant-caps:normal;font-variant-numeric:oldstyle-nums;font-feature-settings:normal;text-align:start;writing-mode:lr-tb;text-anchor:start;opacity:1;fill:#140000;fill-opacity:1;stroke:none;stroke-width:1.10000002;stroke-linecap:square;stroke-linejoin:miter;stroke-miterlimit:4;stroke-dasharray:none;stroke-dashoffset:0;stroke-opacity:1"
       x="103.50366"
       y="63.86264"
       id="text847"><tspan
         sodipodi:role="line"
         id="tspan845"
         x="103.50366"
         y="66.988029"
         style="stroke-width:1.10000002" /><tspan
         sodipodi:role="line"
         x="103.50366"
         y="71.362984"
         style="font-style:normal;font-variant:normal;font-weight:normal;font-stretch:normal;font-size:3.52777767px;font-family:Impact;-inkscape-font-specification:Impact;stroke-width:1.10000002"
         id="tspan849">- idée 01</tspan><tspan
         sodipodi:role="line"
         x="103.50366"
         y="75.772705"
         style="font-style:normal;font-variant:normal;font-weight:normal;font-stretch:normal;font-size:3.52777767px;font-family:Impact;-inkscape-font-specification:Impact;stroke-width:1.10000002"
         id="tspan851">- grosse idée 02</tspan><tspan
         sodipodi:role="line"
         x="103.50366"
         y="80.182426"
         style="font-style:normal;font-variant:normal;font-weight:normal;font-stretch:normal;font-size:3.52777767px;font-family:Impact;-inkscape-font-specification:Impact;stroke-width:1.10000002"
         id="tspan853">- moyenne idée 03</tspan><tspan
         sodipodi:role="line"
         x="103.50366"
         y="84.592155"
         style="font-style:normal;font-variant:normal;font-weight:normal;font-stretch:normal;font-size:3.52777767px;font-family:Impact;-inkscape-font-specification:Impact;stroke-width:1.10000002"
         id="tspan855">- petite idée 04</tspan><tspan
         sodipodi:role="line"
         x="103.50366"
         y="89.001877"
         style="font-style:normal;font-variant:normal;font-weight:normal;font-stretch:normal;font-size:3.52777767px;font-family:Impact;-inkscape-font-specification:Impact;stroke-width:1.10000002"
         id="tspan857">- grande idée 05</tspan><tspan
         sodipodi:role="line"
         x="103.50366"
         y="93.411598"
         style="font-style:normal;font-variant:normal;font-weight:normal;font-stretch:normal;font-size:3.52777767px;font-family:Impact;-inkscape-font-specification:Impact;stroke-width:1.10000002"
         id="tspan859">- idée final 06</tspan></text>
  </g>
  <g
     inkscape:groupmode="layer"
     id="layer9"
     inkscape:label="idée 01">
    <g
       transform="matrix(0.22128315,0,0,0.22128315,45.48342,23.342056)"
       id="g1097">
      <g
         id="g1270"
         transform="translate(-25.364156,-9.30019)">
        <rect
           id="rect1268"
           height="144"
           width="176"
           y="-41.073071"
           x="-33.727737"
           style="fill:#aaaaaa;stroke:none">
          <ns0:video
             ns0:stop-frame="undefined"
             ns0:start-frame="video"
             ns0:loop="false"
             ns0:src="video/video_2018-03-28_17-11-06.mp4"
             ns0:type="video/mp4" />
        </rect>
      </g>
    </g>
    <g
       id="flowRoot1162"
       style="font-style:normal;font-variant:normal;font-weight:normal;font-stretch:normal;font-size:17.33333397px;line-height:1.25;font-family:'Planet Kosmos';-inkscape-font-specification:'Planet Kosmos';font-variant-ligatures:normal;font-variant-caps:normal;font-variant-numeric:oldstyle-nums;font-feature-settings:normal;text-align:start;writing-mode:lr-tb;text-anchor:start;opacity:1;fill:#24221c;fill-opacity:1;stroke:none;stroke-width:4.15748024;stroke-linecap:square;stroke-linejoin:miter;stroke-miterlimit:4;stroke-dasharray:none;stroke-dashoffset:0;stroke-opacity:1"
       transform="matrix(0.277554,0,0,0.277554,-1.5834098,1.5411847)"
       aria-label="le malaise est présent">
      <path
         inkscape:connector-curvature="0"
         id="path1170"
         style="font-style:normal;font-variant:normal;font-weight:normal;font-stretch:normal;font-size:10.66666698px;font-family:'MV Boli';-inkscape-font-specification:'MV Boli'"
         d="m 119.23958,28.641517 q 0.0156,-0.177084 0.0417,-0.385417 0.026,-0.208333 0.0833,-0.385417 0.0573,-0.177083 0.15105,-0.291666 0.099,-0.119792 0.25,-0.119792 0.0833,0 0.18229,0.03125 0.10416,0.03125 0.19271,0.08854 0.0937,0.05208 0.15625,0.130208 0.0625,0.07813 0.0625,0.171875 0,0.04167 -0.0156,0.09896 -0.0156,0.05208 -0.026,0.104167 l -1.30208,5.21875 q -0.0781,0.3125 -0.13021,0.598959 -0.0521,0.28125 -0.0781,0.463541 v 0.125 q 0,0.15625 -0.0208,0.34375 -0.0208,0.182292 -0.0781,0.34375 -0.0573,0.15625 -0.16145,0.260417 -0.099,0.109375 -0.26042,0.109375 -0.14063,0 -0.24479,-0.0625 -0.10417,-0.05729 -0.17188,-0.151042 -0.0677,-0.09375 -0.099,-0.197916 -0.0312,-0.109375 -0.0312,-0.203125 0,-0.08333 0.0156,-0.203125 0.0156,-0.125 0.0365,-0.255209 0.026,-0.135416 0.0521,-0.265625 0.026,-0.135416 0.0521,-0.234375 z" />
      <path
         inkscape:connector-curvature="0"
         id="path1172"
         style="font-style:normal;font-variant:normal;font-weight:normal;font-stretch:normal;font-size:10.66666698px;font-family:'MV Boli';-inkscape-font-specification:'MV Boli'"
         d="m 120.30729,33.386309 q 0,-0.223959 0.11979,-0.380209 0.1198,-0.15625 0.31771,-0.208333 0.0573,-0.114583 0.17709,-0.307292 0.11979,-0.197916 0.29687,-0.427083 0.17708,-0.229167 0.40104,-0.458333 0.22917,-0.234375 0.5,-0.421875 0.27604,-0.192709 0.58854,-0.3125 0.31771,-0.119792 0.67188,-0.119792 0.30208,0 0.52604,0.07292 0.22396,0.07292 0.36979,0.203125 0.14584,0.130208 0.21875,0.3125 0.0729,0.177083 0.0729,0.385416 0,0.177084 -0.0469,0.338542 -0.0729,0.291667 -0.27083,0.510417 -0.19792,0.21875 -0.46875,0.385416 -0.26562,0.161459 -0.58333,0.270834 -0.3125,0.109375 -0.63021,0.182291 -0.3125,0.07292 -0.60417,0.114584 -0.29166,0.03646 -0.50521,0.05729 -0.0469,0.09375 -0.0833,0.239584 -0.0312,0.140625 -0.0312,0.276041 0,0.302084 0.23958,0.46875 0.23959,0.166667 0.66146,0.166667 0.24479,0 0.46875,-0.05208 0.22396,-0.05729 0.42188,-0.140625 0.20312,-0.08854 0.38021,-0.1875 0.17708,-0.104167 0.32291,-0.203125 0.1875,-0.125 0.35417,-0.208334 0.17187,-0.08854 0.30208,-0.08854 0.13021,0 0.16667,0.06771 0.0365,0.0625 0.0365,0.135417 0,0.04167 -0.005,0.08333 0,0.03646 -0.005,0.0625 -0.026,0.135417 -0.10417,0.270833 -0.0781,0.135417 -0.19791,0.234375 -0.54167,0.427084 -1.11459,0.609375 -0.5677,0.182292 -1.21354,0.182292 -0.125,0 -0.29687,-0.01563 -0.16667,-0.01563 -0.34896,-0.0625 -0.18229,-0.04687 -0.35938,-0.135417 -0.17708,-0.08854 -0.3177,-0.234375 -0.13542,-0.145833 -0.22396,-0.359375 -0.0833,-0.213541 -0.0833,-0.515625 0,-0.244791 0.0677,-0.546875 -0.0677,-0.01042 -0.13021,-0.06771 -0.0573,-0.0625 -0.0573,-0.177083 z m 3.26042,-1.442709 q 0.0104,-0.02604 0.0104,-0.04687 0,-0.02083 0,-0.04687 0,-0.140625 -0.10417,-0.208333 -0.10417,-0.07292 -0.25,-0.07292 -0.22917,0 -0.45313,0.119792 -0.21875,0.119792 -0.41666,0.302083 -0.19271,0.177084 -0.34375,0.385417 -0.15104,0.203125 -0.23438,0.369792 0.375,-0.03125 0.6875,-0.09896 0.3125,-0.07292 0.54167,-0.177083 0.23437,-0.109375 0.375,-0.239583 0.14583,-0.135417 0.1875,-0.286459 z m -0.60417,-1.411458 z" />
      <path
         inkscape:connector-curvature="0"
         id="path1174"
         style="font-style:normal;font-variant:normal;font-weight:normal;font-stretch:normal;font-size:10.66666698px;font-family:'MV Boli';-inkscape-font-specification:'MV Boli'"
         d="m 130.86458,35.052975 q 0.15625,-0.609375 0.30209,-1.135416 0.14583,-0.526042 0.28125,-1.005209 0.14062,-0.484375 0.27083,-0.9375 0.13021,-0.453125 0.25,-0.921875 0.0469,-0.182291 0.0521,-0.348958 0.0104,-0.171875 0.0521,-0.354167 0.0208,-0.0625 0.0729,-0.109375 0.0573,-0.05208 0.125,-0.08854 0.0677,-0.03646 0.14063,-0.05729 0.0781,-0.02083 0.14583,-0.02083 0.14584,0 0.23959,0.03646 0.099,0.03125 0.15625,0.08854 0.0625,0.05729 0.0833,0.140625 0.026,0.07813 0.026,0.177083 0,0.177083 -0.0573,0.359375 -0.0573,0.177083 -0.14063,0.390625 0.2448,-0.192708 0.5,-0.364583 0.26042,-0.171875 0.53125,-0.302084 0.27605,-0.130208 0.5625,-0.208333 0.28646,-0.07813 0.59375,-0.07813 0.14063,0 0.28125,0.04687 0.14063,0.04167 0.25,0.135417 0.11459,0.09375 0.1875,0.244791 0.0781,0.151042 0.0885,0.369792 0.22395,-0.151042 0.46354,-0.302083 0.23958,-0.15625 0.48437,-0.276042 0.25,-0.125 0.49479,-0.197917 0.25,-0.07813 0.48438,-0.07813 0.34896,0 0.57292,0.09375 0.22916,0.08854 0.35937,0.244792 0.13542,0.151042 0.1875,0.354167 0.0573,0.203125 0.0573,0.432291 0,0.25 -0.0469,0.515625 -0.0469,0.265625 -0.10417,0.505209 -0.15104,0.604166 -0.33854,1.145833 -0.1875,0.536458 -0.40625,1.088542 -0.0521,0.130208 -0.10938,0.276041 -0.0573,0.145834 -0.13541,0.270834 -0.0729,0.119791 -0.17709,0.203125 -0.099,0.07813 -0.23437,0.07813 -0.30729,0 -0.42188,-0.104167 -0.11458,-0.104167 -0.11458,-0.296875 0,-0.05208 0.005,-0.119792 0.005,-0.06771 0.026,-0.130208 0.0208,-0.07813 0.0937,-0.223958 0.0729,-0.151042 0.15625,-0.322917 0.0885,-0.171875 0.17188,-0.34375 0.0833,-0.177083 0.125,-0.307292 0.0677,-0.223958 0.15625,-0.515625 0.0937,-0.296875 0.17708,-0.59375 0.0833,-0.302083 0.13542,-0.567708 0.0573,-0.270833 0.0573,-0.4375 0,-0.07813 -0.0156,-0.15625 -0.0156,-0.07813 -0.0573,-0.135417 -0.0365,-0.05729 -0.10937,-0.09375 -0.0677,-0.03646 -0.17709,-0.03646 -0.15625,0 -0.375,0.08854 -0.21354,0.08854 -0.44791,0.234375 -0.22917,0.140625 -0.44792,0.322916 -0.21875,0.177084 -0.375,0.354167 -0.10938,0.125 -0.20833,0.203125 -0.099,0.07813 -0.19792,0.119792 -0.0104,0.02083 -0.0521,0.140625 -0.0417,0.114583 -0.099,0.28125 -0.0573,0.161458 -0.11979,0.354166 -0.0625,0.1875 -0.1198,0.354167 -0.0521,0.161458 -0.0885,0.276042 -0.0365,0.109375 -0.0365,0.119791 -0.0365,0.145834 -0.0625,0.302084 -0.026,0.151041 -0.0469,0.291666 -0.0208,0.140625 -0.0417,0.302084 -0.0156,0.15625 -0.0729,0.296875 -0.0521,0.135416 -0.16667,0.223958 -0.10938,0.08854 -0.3125,0.08854 -0.10417,0 -0.19271,-0.05208 -0.0833,-0.05208 -0.14583,-0.130208 -0.0625,-0.08333 -0.099,-0.182292 -0.0365,-0.104166 -0.0417,-0.208333 0.11979,-0.46875 0.23438,-0.84375 0.11458,-0.375 0.22916,-0.71875 0.11459,-0.34375 0.21875,-0.6875 0.10938,-0.348958 0.21355,-0.765625 0.026,-0.09896 0.0417,-0.192708 0.0156,-0.09896 0.0156,-0.171875 0,-0.125 -0.0521,-0.203125 -0.0521,-0.08333 -0.18229,-0.08333 -0.21354,0 -0.42708,0.08854 -0.20833,0.08333 -0.45313,0.265625 -0.24479,0.182292 -0.54687,0.463542 -0.29688,0.28125 -0.6875,0.671875 -0.0417,0.07813 -0.10938,0.291666 -0.0677,0.213542 -0.14062,0.453125 -0.0677,0.239584 -0.125,0.447917 -0.0573,0.203125 -0.0729,0.270833 -0.0573,0.21875 -0.0781,0.369792 -0.0208,0.145833 -0.0365,0.265625 -0.0104,0.0625 -0.0312,0.208333 -0.0208,0.140625 -0.0781,0.286459 -0.0521,0.145833 -0.15104,0.255208 -0.099,0.114583 -0.26041,0.114583 -0.23959,0 -0.39584,-0.130208 -0.15104,-0.130208 -0.15104,-0.328125 0,-0.03646 0.005,-0.06771 0.005,-0.03125 0.0156,-0.06771 z" />
      <path
         inkscape:connector-curvature="0"
         id="path1176"
         style="font-style:normal;font-variant:normal;font-weight:normal;font-stretch:normal;font-size:10.66666698px;font-family:'MV Boli';-inkscape-font-specification:'MV Boli'"
         d="m 142.55729,35.172767 q 0,-0.151042 0.0365,-0.359375 0.0365,-0.213542 0.0365,-0.526042 -0.17188,0.125 -0.38021,0.296875 -0.20833,0.171875 -0.43229,0.328125 -0.22396,0.15625 -0.44792,0.265625 -0.21875,0.104167 -0.41146,0.104167 -0.15625,0 -0.29687,-0.04687 -0.14063,-0.04687 -0.23958,-0.125 -0.27605,-0.21875 -0.40105,-0.4375 -0.11979,-0.21875 -0.11979,-0.510417 0,-0.130208 0.0208,-0.270833 0.026,-0.140625 0.0729,-0.322917 0.19792,-0.822916 0.67709,-1.520833 0.48437,-0.703125 1.19791,-1.197917 0.27604,-0.192708 0.55209,-0.244791 0.27604,-0.05729 0.54687,-0.05729 0.11979,0 0.26563,0.01563 0.15104,0.01563 0.27083,0.03125 0.11979,-0.02604 0.19271,-0.03646 0.0781,-0.01042 0.16146,-0.01042 0.15625,0 0.26041,0.04167 0.10417,0.04167 0.16667,0.114583 0.0625,0.06771 0.0885,0.161458 0.0312,0.08854 0.0312,0.1875 0,0.135417 -0.0417,0.260417 -0.0417,0.119792 -0.0833,0.244792 l -0.6875,2.744791 q -0.0208,0.223959 -0.0365,0.411459 -0.0156,0.1875 -0.0625,0.348958 -0.0156,0.04687 -0.0417,0.119792 -0.0208,0.06771 -0.0729,0.135416 -0.0521,0.0625 -0.13021,0.109375 -0.0781,0.04687 -0.20312,0.04687 -0.16146,0 -0.26042,-0.02083 -0.0937,-0.02083 -0.14583,-0.05729 -0.0521,-0.04167 -0.0677,-0.09375 -0.0156,-0.05729 -0.0156,-0.130208 z m -1.72916,-1.572917 q -0.0208,0.07292 -0.0469,0.208334 -0.0208,0.135416 -0.0208,0.270833 0,0.140625 0.0417,0.255208 0.0417,0.109375 0.1823,0.109375 0.21875,0 0.40625,-0.09375 0.1927,-0.09896 0.35937,-0.234375 0.22396,-0.182291 0.45313,-0.40625 0.23437,-0.229166 0.4375,-0.479166 0.20833,-0.25 0.36458,-0.510417 0.16146,-0.265625 0.23437,-0.526042 0.0417,-0.151041 0.0677,-0.348958 0.0312,-0.197917 0.0312,-0.354167 0,-0.06771 -0.0312,-0.130208 -0.0312,-0.06771 -0.11979,-0.06771 -0.25521,0 -0.51562,0.09896 -0.25521,0.09896 -0.4948,0.265625 -0.23958,0.166667 -0.45833,0.395833 -0.21354,0.223959 -0.39062,0.484375 -0.17709,0.255209 -0.3073,0.53125 -0.125,0.270834 -0.1927,0.53125 z" />
      <path
         inkscape:connector-curvature="0"
         id="path1178"
         style="font-style:normal;font-variant:normal;font-weight:normal;font-stretch:normal;font-size:10.66666698px;font-family:'MV Boli';-inkscape-font-specification:'MV Boli'"
         d="m 146.73958,28.641517 q 0.0156,-0.177084 0.0417,-0.385417 0.026,-0.208333 0.0833,-0.385417 0.0573,-0.177083 0.15105,-0.291666 0.099,-0.119792 0.25,-0.119792 0.0833,0 0.18229,0.03125 0.10416,0.03125 0.19271,0.08854 0.0937,0.05208 0.15625,0.130208 0.0625,0.07813 0.0625,0.171875 0,0.04167 -0.0156,0.09896 -0.0156,0.05208 -0.026,0.104167 l -1.30208,5.21875 q -0.0781,0.3125 -0.13021,0.598959 -0.0521,0.28125 -0.0781,0.463541 v 0.125 q 0,0.15625 -0.0208,0.34375 -0.0208,0.182292 -0.0781,0.34375 -0.0573,0.15625 -0.16145,0.260417 -0.099,0.109375 -0.26042,0.109375 -0.14063,0 -0.24479,-0.0625 -0.10417,-0.05729 -0.17188,-0.151042 -0.0677,-0.09375 -0.099,-0.197916 -0.0312,-0.109375 -0.0312,-0.203125 0,-0.08333 0.0156,-0.203125 0.0156,-0.125 0.0365,-0.255209 0.026,-0.135416 0.0521,-0.265625 0.026,-0.135416 0.0521,-0.234375 z" />
      <path
         inkscape:connector-curvature="0"
         id="path1180"
         style="font-style:normal;font-variant:normal;font-weight:normal;font-stretch:normal;font-size:10.66666698px;font-family:'MV Boli';-inkscape-font-specification:'MV Boli'"
         d="m 150.41146,35.172767 q 0,-0.151042 0.0365,-0.359375 0.0365,-0.213542 0.0365,-0.526042 -0.17188,0.125 -0.38021,0.296875 -0.20834,0.171875 -0.43229,0.328125 -0.22396,0.15625 -0.44792,0.265625 -0.21875,0.104167 -0.41146,0.104167 -0.15625,0 -0.29687,-0.04687 -0.14063,-0.04687 -0.23959,-0.125 -0.27604,-0.21875 -0.40104,-0.4375 -0.11979,-0.21875 -0.11979,-0.510417 0,-0.130208 0.0208,-0.270833 0.026,-0.140625 0.0729,-0.322917 0.19792,-0.822916 0.67708,-1.520833 0.48438,-0.703125 1.19792,-1.197917 0.27604,-0.192708 0.55208,-0.244791 0.27604,-0.05729 0.54688,-0.05729 0.11979,0 0.26562,0.01563 0.15104,0.01563 0.27084,0.03125 0.11979,-0.02604 0.1927,-0.03646 0.0781,-0.01042 0.16146,-0.01042 0.15625,0 0.26042,0.04167 0.10417,0.04167 0.16667,0.114583 0.0625,0.06771 0.0885,0.161458 0.0312,0.08854 0.0312,0.1875 0,0.135417 -0.0417,0.260417 -0.0417,0.119792 -0.0833,0.244792 l -0.6875,2.744791 q -0.0208,0.223959 -0.0365,0.411459 -0.0156,0.1875 -0.0625,0.348958 -0.0156,0.04687 -0.0417,0.119792 -0.0208,0.06771 -0.0729,0.135416 -0.0521,0.0625 -0.13021,0.109375 -0.0781,0.04687 -0.20313,0.04687 -0.16146,0 -0.26041,-0.02083 -0.0937,-0.02083 -0.14584,-0.05729 -0.0521,-0.04167 -0.0677,-0.09375 -0.0156,-0.05729 -0.0156,-0.130208 z m -1.72917,-1.572917 q -0.0208,0.07292 -0.0469,0.208334 -0.0208,0.135416 -0.0208,0.270833 0,0.140625 0.0417,0.255208 0.0417,0.109375 0.18229,0.109375 0.21875,0 0.40625,-0.09375 0.19271,-0.09896 0.35938,-0.234375 0.22396,-0.182291 0.45312,-0.40625 0.23438,-0.229166 0.4375,-0.479166 0.20834,-0.25 0.36459,-0.510417 0.16145,-0.265625 0.23437,-0.526042 0.0417,-0.151041 0.0677,-0.348958 0.0312,-0.197917 0.0312,-0.354167 0,-0.06771 -0.0312,-0.130208 -0.0312,-0.06771 -0.11979,-0.06771 -0.25521,0 -0.51563,0.09896 -0.25521,0.09896 -0.49479,0.265625 -0.23958,0.166667 -0.45833,0.395833 -0.21354,0.223959 -0.39063,0.484375 -0.17708,0.255209 -0.30729,0.53125 -0.125,0.270834 -0.19271,0.53125 z" />
      <path
         inkscape:connector-curvature="0"
         id="path1182"
         style="font-style:normal;font-variant:normal;font-weight:normal;font-stretch:normal;font-size:10.66666698px;font-family:'MV Boli';-inkscape-font-specification:'MV Boli'"
         d="m 153.03646,34.4436 q 0.0781,-0.302083 0.1875,-0.703125 0.10937,-0.401041 0.22917,-0.848958 0.125,-0.447917 0.25,-0.916667 0.125,-0.46875 0.23437,-0.911458 0.005,-0.02083 0.0365,-0.06771 0.0312,-0.05208 0.0885,-0.09896 0.0573,-0.05208 0.14583,-0.08854 0.0885,-0.03646 0.20834,-0.03646 0.0885,0 0.17187,0.02083 0.0833,0.01563 0.14584,0.05208 0.0677,0.03646 0.10416,0.09896 0.0417,0.05729 0.0417,0.135417 0,0.01563 0,0.03646 0,0.01563 -0.005,0.03125 l -0.14583,0.552084 q -0.24479,0.927083 -0.5,1.859375 -0.25,0.932291 -0.48959,1.869791 -0.0104,0.03125 -0.0312,0.07813 -0.0208,0.04687 -0.0573,0.09375 -0.0365,0.04687 -0.0885,0.07813 -0.0521,0.03125 -0.125,0.03125 -0.13542,0 -0.23958,-0.05729 -0.10417,-0.05208 -0.17709,-0.135417 -0.0729,-0.08333 -0.10937,-0.182292 -0.0365,-0.09896 -0.0365,-0.1875 0,-0.02604 0,-0.04687 0,-0.02083 0.0104,-0.04687 z m 1.35937,-5.390625 q 0.026,-0.109375 0.0937,-0.265625 0.0677,-0.15625 0.23959,-0.28125 0.0833,-0.04687 0.20312,-0.08333 0.11979,-0.04167 0.17188,-0.04167 0.0521,0 0.10416,0.03646 0.0573,0.03646 0.099,0.07813 0.0521,0.05208 0.099,0.114584 0.13021,0.01042 0.16667,0.09375 0.0417,0.08333 0.0417,0.197916 0,0.08333 -0.0156,0.151042 -0.0156,0.06771 -0.026,0.109375 -0.0312,0.109375 -0.11979,0.203125 -0.0885,0.08854 -0.20313,0.15625 -0.11458,0.0625 -0.23958,0.09896 -0.125,0.03646 -0.21875,0.03646 -0.11979,0 -0.1875,-0.04167 -0.0625,-0.04167 -0.16146,-0.177083 -0.0573,-0.07813 -0.0677,-0.119792 -0.005,-0.04687 -0.005,-0.07813 0,-0.05729 0.005,-0.09896 0.0104,-0.04687 0.0208,-0.08854 z" />
      <path
         inkscape:connector-curvature="0"
         id="path1184"
         style="font-style:normal;font-variant:normal;font-weight:normal;font-stretch:normal;font-size:10.66666698px;font-family:'MV Boli';-inkscape-font-specification:'MV Boli'"
         d="m 155.88021,34.47485 q 0.0417,0 0.0729,0.01042 0.0365,0.01042 0.0781,0.02604 0.0417,0.01042 0.0937,0.02083 0.0521,0.01042 0.13542,0.01042 0.24479,0 0.54166,-0.05208 0.30209,-0.05208 0.56771,-0.135416 0.26563,-0.08333 0.45313,-0.1875 0.19271,-0.109375 0.21875,-0.223959 0.0156,-0.0625 0.0156,-0.109375 0,-0.08854 -0.0885,-0.166666 -0.0833,-0.08333 -0.21354,-0.15625 -0.13021,-0.07292 -0.28125,-0.135417 -0.15104,-0.0625 -0.28125,-0.114583 l -0.17708,-0.07292 q -0.13542,-0.05208 -0.26563,-0.125 -0.13021,-0.07813 -0.24479,-0.177083 -0.10938,-0.09896 -0.19792,-0.229167 -0.0833,-0.135417 -0.125,-0.307292 -0.0208,-0.07292 -0.0365,-0.145833 -0.0104,-0.07292 -0.0104,-0.15625 0,-0.135417 0.0885,-0.307292 0.0937,-0.177083 0.24479,-0.348958 0.15625,-0.171875 0.34896,-0.328125 0.19792,-0.15625 0.41146,-0.260417 0.15625,-0.109375 0.30208,-0.197916 0.14583,-0.08854 0.29167,-0.151042 0.15104,-0.0625 0.30208,-0.09896 0.15625,-0.03646 0.32813,-0.03646 0.15625,0 0.33854,0.01563 0.18229,0.01563 0.33333,0.07292 0.15104,0.05729 0.25,0.171875 0.10417,0.109375 0.10417,0.296875 0,0.05729 -0.0156,0.151042 -0.0156,0.09375 -0.0521,0.1875 -0.0365,0.09375 -0.0885,0.161458 -0.0521,0.06771 -0.125,0.06771 -0.11979,0 -0.19792,-0.04687 -0.0781,-0.04687 -0.14062,-0.09896 -0.0625,-0.05729 -0.13021,-0.104167 -0.0677,-0.04687 -0.16667,-0.04687 -0.11979,0 -0.28125,0.04687 -0.15625,0.04167 -0.32292,0.119792 -0.16666,0.07292 -0.32812,0.171875 -0.15625,0.09896 -0.28646,0.203125 -0.125,0.104167 -0.20312,0.208333 -0.0781,0.09896 -0.0781,0.182292 0,0.08854 0.0573,0.145833 0.0573,0.05729 0.14584,0.09896 0.11458,0.0625 0.26041,0.125 0.15104,0.0625 0.30209,0.125 0.15104,0.0625 0.29166,0.125 0.14584,0.0625 0.25,0.114583 0.14063,0.07292 0.25,0.145833 0.11459,0.06771 0.19271,0.151042 0.0781,0.08333 0.11979,0.1875 0.0417,0.104167 0.0417,0.244792 0,0.06771 -0.0104,0.135416 -0.0104,0.06771 -0.0312,0.15625 -0.0156,0.07813 -0.0573,0.182292 -0.0365,0.104167 -0.0833,0.208333 -0.0417,0.09896 -0.0885,0.182292 -0.0469,0.07813 -0.0781,0.104167 -0.20312,0.1875 -0.47917,0.354166 -0.27604,0.161459 -0.57812,0.286459 -0.29688,0.119791 -0.59896,0.192708 -0.29687,0.07292 -0.54687,0.07292 -0.125,0 -0.27605,-0.04687 -0.15104,-0.05208 -0.28125,-0.130209 -0.125,-0.08333 -0.21354,-0.1875 -0.0833,-0.104166 -0.0833,-0.208333 0,-0.05208 0.0312,-0.114583 0.0312,-0.06771 0.0781,-0.119792 0.0469,-0.05729 0.099,-0.09375 0.0573,-0.04167 0.10417,-0.04167 z" />
      <path
         inkscape:connector-curvature="0"
         id="path1186"
         style="font-style:normal;font-variant:normal;font-weight:normal;font-stretch:normal;font-size:10.66666698px;font-family:'MV Boli';-inkscape-font-specification:'MV Boli'"
         d="m 160.09896,33.386309 q 0,-0.223959 0.11979,-0.380209 0.11979,-0.15625 0.31771,-0.208333 0.0573,-0.114583 0.17708,-0.307292 0.11979,-0.197916 0.29688,-0.427083 0.17708,-0.229167 0.40104,-0.458333 0.22917,-0.234375 0.5,-0.421875 0.27604,-0.192709 0.58854,-0.3125 0.31771,-0.119792 0.67188,-0.119792 0.30208,0 0.52604,0.07292 0.22396,0.07292 0.36979,0.203125 0.14583,0.130208 0.21875,0.3125 0.0729,0.177083 0.0729,0.385416 0,0.177084 -0.0469,0.338542 -0.0729,0.291667 -0.27083,0.510417 -0.19792,0.21875 -0.46875,0.385416 -0.26563,0.161459 -0.58334,0.270834 -0.3125,0.109375 -0.6302,0.182291 -0.3125,0.07292 -0.60417,0.114584 -0.29167,0.03646 -0.50521,0.05729 -0.0469,0.09375 -0.0833,0.239584 -0.0312,0.140625 -0.0312,0.276041 0,0.302084 0.23958,0.46875 0.23958,0.166667 0.66146,0.166667 0.24479,0 0.46875,-0.05208 0.22396,-0.05729 0.42187,-0.140625 0.20313,-0.08854 0.38021,-0.1875 0.17709,-0.104167 0.32292,-0.203125 0.1875,-0.125 0.35417,-0.208334 0.17187,-0.08854 0.30208,-0.08854 0.13021,0 0.16667,0.06771 0.0365,0.0625 0.0365,0.135417 0,0.04167 -0.005,0.08333 0,0.03646 -0.005,0.0625 -0.026,0.135417 -0.10417,0.270833 -0.0781,0.135417 -0.19792,0.234375 -0.54166,0.427084 -1.11458,0.609375 -0.56771,0.182292 -1.21354,0.182292 -0.125,0 -0.29688,-0.01563 -0.16666,-0.01563 -0.34895,-0.0625 -0.1823,-0.04687 -0.35938,-0.135417 -0.17708,-0.08854 -0.31771,-0.234375 -0.13541,-0.145833 -0.22396,-0.359375 -0.0833,-0.213541 -0.0833,-0.515625 0,-0.244791 0.0677,-0.546875 -0.0677,-0.01042 -0.13021,-0.06771 -0.0573,-0.0625 -0.0573,-0.177083 z m 3.26042,-1.442709 q 0.0104,-0.02604 0.0104,-0.04687 0,-0.02083 0,-0.04687 0,-0.140625 -0.10416,-0.208333 -0.10417,-0.07292 -0.25,-0.07292 -0.22917,0 -0.45313,0.119792 -0.21875,0.119792 -0.41667,0.302083 -0.1927,0.177084 -0.34375,0.385417 -0.15104,0.203125 -0.23437,0.369792 0.375,-0.03125 0.6875,-0.09896 0.3125,-0.07292 0.54167,-0.177083 0.23437,-0.109375 0.375,-0.239583 0.14583,-0.135417 0.1875,-0.286459 z m -0.60417,-1.411458 z" />
      <path
         inkscape:connector-curvature="0"
         id="path1188"
         style="font-style:normal;font-variant:normal;font-weight:normal;font-stretch:normal;font-size:10.66666698px;font-family:'MV Boli';-inkscape-font-specification:'MV Boli'"
         d="m 170.57813,33.386309 q 0,-0.223959 0.11979,-0.380209 0.11979,-0.15625 0.31771,-0.208333 0.0573,-0.114583 0.17708,-0.307292 0.11979,-0.197916 0.29688,-0.427083 0.17708,-0.229167 0.40104,-0.458333 0.22916,-0.234375 0.5,-0.421875 0.27604,-0.192709 0.58854,-0.3125 0.31771,-0.119792 0.67187,-0.119792 0.30209,0 0.52605,0.07292 0.22395,0.07292 0.36979,0.203125 0.14583,0.130208 0.21875,0.3125 0.0729,0.177083 0.0729,0.385416 0,0.177084 -0.0469,0.338542 -0.0729,0.291667 -0.27083,0.510417 -0.19792,0.21875 -0.46875,0.385416 -0.26563,0.161459 -0.58334,0.270834 -0.3125,0.109375 -0.63021,0.182291 -0.3125,0.07292 -0.60416,0.114584 -0.29167,0.03646 -0.50521,0.05729 -0.0469,0.09375 -0.0833,0.239584 -0.0312,0.140625 -0.0312,0.276041 0,0.302084 0.23958,0.46875 0.23958,0.166667 0.66146,0.166667 0.24479,0 0.46875,-0.05208 0.22396,-0.05729 0.42187,-0.140625 0.20313,-0.08854 0.38021,-0.1875 0.17708,-0.104167 0.32292,-0.203125 0.1875,-0.125 0.35416,-0.208334 0.17188,-0.08854 0.30209,-0.08854 0.13021,0 0.16666,0.06771 0.0365,0.0625 0.0365,0.135417 0,0.04167 -0.005,0.08333 0,0.03646 -0.005,0.0625 -0.026,0.135417 -0.10417,0.270833 -0.0781,0.135417 -0.19792,0.234375 -0.54166,0.427084 -1.11458,0.609375 -0.56771,0.182292 -1.21354,0.182292 -0.125,0 -0.29688,-0.01563 -0.16666,-0.01563 -0.34896,-0.0625 -0.18229,-0.04687 -0.35937,-0.135417 -0.17708,-0.08854 -0.31771,-0.234375 -0.13542,-0.145833 -0.22396,-0.359375 -0.0833,-0.213541 -0.0833,-0.515625 0,-0.244791 0.0677,-0.546875 -0.0677,-0.01042 -0.13021,-0.06771 -0.0573,-0.0625 -0.0573,-0.177083 z m 3.26041,-1.442709 q 0.0104,-0.02604 0.0104,-0.04687 0,-0.02083 0,-0.04687 0,-0.140625 -0.10417,-0.208333 -0.10416,-0.07292 -0.25,-0.07292 -0.22916,0 -0.45312,0.119792 -0.21875,0.119792 -0.41667,0.302083 -0.19271,0.177084 -0.34375,0.385417 -0.15104,0.203125 -0.23437,0.369792 0.375,-0.03125 0.6875,-0.09896 0.3125,-0.07292 0.54166,-0.177083 0.23438,-0.109375 0.375,-0.239583 0.14584,-0.135417 0.1875,-0.286459 z m -0.60416,-1.411458 z" />
      <path
         inkscape:connector-curvature="0"
         id="path1190"
         style="font-style:normal;font-variant:normal;font-weight:normal;font-stretch:normal;font-size:10.66666698px;font-family:'MV Boli';-inkscape-font-specification:'MV Boli'"
         d="m 176.04688,34.47485 q 0.0417,0 0.0729,0.01042 0.0365,0.01042 0.0781,0.02604 0.0417,0.01042 0.0937,0.02083 0.0521,0.01042 0.13541,0.01042 0.2448,0 0.54167,-0.05208 0.30208,-0.05208 0.56771,-0.135416 0.26562,-0.08333 0.45312,-0.1875 0.19271,-0.109375 0.21875,-0.223959 0.0156,-0.0625 0.0156,-0.109375 0,-0.08854 -0.0885,-0.166666 -0.0833,-0.08333 -0.21354,-0.15625 -0.13021,-0.07292 -0.28125,-0.135417 -0.15105,-0.0625 -0.28125,-0.114583 l -0.17709,-0.07292 q -0.13541,-0.05208 -0.26562,-0.125 -0.13021,-0.07813 -0.24479,-0.177083 -0.10938,-0.09896 -0.19792,-0.229167 -0.0833,-0.135417 -0.125,-0.307292 -0.0208,-0.07292 -0.0365,-0.145833 -0.0104,-0.07292 -0.0104,-0.15625 0,-0.135417 0.0885,-0.307292 0.0937,-0.177083 0.24479,-0.348958 0.15625,-0.171875 0.34896,-0.328125 0.19791,-0.15625 0.41145,-0.260417 0.15625,-0.109375 0.30209,-0.197916 0.14583,-0.08854 0.29166,-0.151042 0.15105,-0.0625 0.30209,-0.09896 0.15625,-0.03646 0.32812,-0.03646 0.15625,0 0.33854,0.01563 0.1823,0.01563 0.33334,0.07292 0.15104,0.05729 0.25,0.171875 0.10416,0.109375 0.10416,0.296875 0,0.05729 -0.0156,0.151042 -0.0156,0.09375 -0.0521,0.1875 -0.0365,0.09375 -0.0885,0.161458 -0.0521,0.06771 -0.125,0.06771 -0.11979,0 -0.19791,-0.04687 -0.0781,-0.04687 -0.14063,-0.09896 -0.0625,-0.05729 -0.13021,-0.104167 -0.0677,-0.04687 -0.16666,-0.04687 -0.11979,0 -0.28125,0.04687 -0.15625,0.04167 -0.32292,0.119792 -0.16667,0.07292 -0.32812,0.171875 -0.15625,0.09896 -0.28646,0.203125 -0.125,0.104167 -0.20313,0.208333 -0.0781,0.09896 -0.0781,0.182292 0,0.08854 0.0573,0.145833 0.0573,0.05729 0.14583,0.09896 0.11459,0.0625 0.26042,0.125 0.15104,0.0625 0.30208,0.125 0.15104,0.0625 0.29167,0.125 0.14583,0.0625 0.25,0.114583 0.14062,0.07292 0.25,0.145833 0.11458,0.06771 0.19271,0.151042 0.0781,0.08333 0.11979,0.1875 0.0417,0.104167 0.0417,0.244792 0,0.06771 -0.0104,0.135416 -0.0104,0.06771 -0.0312,0.15625 -0.0156,0.07813 -0.0573,0.182292 -0.0365,0.104167 -0.0833,0.208333 -0.0417,0.09896 -0.0885,0.182292 -0.0469,0.07813 -0.0781,0.104167 -0.20313,0.1875 -0.47917,0.354166 -0.27604,0.161459 -0.57812,0.286459 -0.29688,0.119791 -0.59896,0.192708 -0.29688,0.07292 -0.54688,0.07292 -0.125,0 -0.27604,-0.04687 -0.15104,-0.05208 -0.28125,-0.130209 -0.125,-0.08333 -0.21354,-0.1875 -0.0833,-0.104166 -0.0833,-0.208333 0,-0.05208 0.0312,-0.114583 0.0312,-0.06771 0.0781,-0.119792 0.0469,-0.05729 0.099,-0.09375 0.0573,-0.04167 0.10417,-0.04167 z" />
      <path
         inkscape:connector-curvature="0"
         id="path1192"
         style="font-style:normal;font-variant:normal;font-weight:normal;font-stretch:normal;font-size:10.66666698px;font-family:'MV Boli';-inkscape-font-specification:'MV Boli'"
         d="m 181.08334,33.776934 q 0,-0.4375 0.099,-0.90625 0.099,-0.473959 0.20834,-0.90625 -0.13542,-0.0052 -0.27604,-0.04167 -0.14063,-0.03646 -0.25521,-0.09896 -0.11459,-0.0625 -0.1875,-0.151042 -0.0729,-0.09375 -0.0729,-0.213542 0,-0.04687 0.0208,-0.119791 0.0208,-0.07292 0.0573,-0.140625 0.0417,-0.07292 0.10416,-0.119792 0.0625,-0.05208 0.14063,-0.05208 h 0.69791 q 0.099,0 0.13542,-0.08333 0.0365,-0.08854 0.0573,-0.171875 0.0677,-0.302083 0.125,-0.520833 0.0625,-0.223959 0.10417,-0.375 0.0417,-0.15625 0.0625,-0.25 0.026,-0.09896 0.026,-0.15625 0,-0.06771 -0.005,-0.130209 -0.005,-0.0625 -0.005,-0.171875 v -0.05208 q 0,-0.04167 0.005,-0.109375 0.0104,-0.06771 0.0521,-0.192708 0.0312,-0.09896 0.11458,-0.1875 0.0833,-0.08854 0.24479,-0.08854 0.14063,0 0.23958,0.05729 0.099,0.05729 0.16146,0.151041 0.0625,0.09375 0.0937,0.213542 0.0312,0.119792 0.0312,0.239583 0,0.130209 -0.026,0.234375 l -0.38021,1.458334 q 0.28125,-0.04687 0.5,-0.08854 0.21875,-0.04167 0.4375,-0.08333 0.23959,-0.04687 0.41146,-0.08854 0.17708,-0.04167 0.30208,-0.06771 0.125,-0.03125 0.20834,-0.04687 0.0885,-0.02083 0.14583,-0.02083 0.0833,0 0.16667,0.01563 0.0885,0.01042 0.15104,0.04167 0.0677,0.03125 0.10937,0.08854 0.0417,0.05729 0.0417,0.151042 0,0.125 -0.0521,0.223958 -0.0469,0.09375 -0.125,0.166667 -0.0781,0.06771 -0.17709,0.114583 -0.099,0.04167 -0.19791,0.0625 -0.0833,0.01563 -0.21875,0.04687 -0.13021,0.03125 -0.29167,0.06771 -0.15625,0.03646 -0.32812,0.07813 -0.17188,0.04167 -0.33334,0.08333 -0.23958,0.0625 -0.41146,0.104166 -0.16666,0.04167 -0.28645,0.0625 -0.1198,0.02083 -0.19792,0.03125 -0.0729,0.01042 -0.11979,0.01042 -0.099,0.296875 -0.17188,0.583333 -0.0729,0.286459 -0.125,0.536459 -0.0469,0.244791 -0.0729,0.442708 Q 182,33.59985 182,33.709225 q 0,0.140625 0.026,0.270834 0.026,0.125 0.0885,0.21875 0.0625,0.09375 0.16666,0.151041 0.10938,0.05208 0.27084,0.05208 0.27604,0 0.54166,-0.151042 0.26563,-0.151042 0.50521,-0.380208 0.24479,-0.234375 0.45833,-0.510417 0.21875,-0.276042 0.40105,-0.526042 0.0625,-0.09375 0.16145,-0.09375 0.0312,0 0.0729,0.01042 0.0469,0.01042 0.0885,0.03646 0.0417,0.02604 0.0677,0.06771 0.0312,0.04167 0.0312,0.09896 0,0.04167 -0.005,0.0625 -0.0833,0.322917 -0.26041,0.651042 -0.17188,0.322916 -0.35417,0.651041 -0.0625,0.114584 -0.16667,0.223959 -0.099,0.109375 -0.21875,0.213541 -0.11979,0.09896 -0.25,0.192709 -0.13021,0.08854 -0.24479,0.161458 -0.19792,0.125 -0.43229,0.171875 -0.23438,0.04687 -0.45313,0.04687 -0.33854,0 -0.60416,-0.119792 -0.26042,-0.125 -0.44271,-0.333333 -0.17708,-0.213542 -0.27083,-0.494792 -0.0937,-0.28125 -0.0937,-0.604166 z" />
      <path
         inkscape:connector-curvature="0"
         id="path1194"
         style="font-style:normal;font-variant:normal;font-weight:normal;font-stretch:normal;font-size:10.66666698px;font-family:'MV Boli';-inkscape-font-specification:'MV Boli'"
         d="m 190.71876,37.323809 q 0.10416,-0.421875 0.18229,-0.776042 0.0833,-0.348958 0.15104,-0.661458 0.0677,-0.307292 0.125,-0.59375 0.0625,-0.291667 0.11979,-0.583334 0.0625,-0.296875 0.125,-0.614583 0.0677,-0.317708 0.14583,-0.692708 l 0.25,-1.208334 q 0.0625,-0.307291 0.0833,-0.526041 0.026,-0.223959 0.026,-0.411459 0,-0.197916 0.0104,-0.348958 0.0104,-0.15625 0.0573,-0.260417 0.0469,-0.109375 0.13541,-0.161458 0.0937,-0.05729 0.25521,-0.05729 0.23438,0 0.36459,0.06771 0.1302,0.0625 0.1927,0.166666 0.0625,0.104167 0.0729,0.239584 0.0156,0.135416 0.0156,0.28125 0.17708,-0.125 0.41145,-0.223959 0.23959,-0.09896 0.4948,-0.161458 0.2552,-0.06771 0.51562,-0.104167 0.26042,-0.03646 0.48958,-0.03646 0.375,0 0.65625,0.135417 0.28125,0.130208 0.46875,0.354166 0.1875,0.21875 0.28125,0.510417 0.0937,0.286458 0.0937,0.59375 0,0.359375 -0.11458,0.677083 -0.11458,0.317709 -0.3125,0.59375 -0.19792,0.276042 -0.46354,0.515625 -0.26042,0.234375 -0.56771,0.432292 -0.30208,0.197917 -0.63021,0.364583 -0.32291,0.161459 -0.64062,0.291667 -0.21354,0.08854 -0.40625,0.135417 -0.1875,0.04167 -0.33854,0.04167 -0.21355,0 -0.41667,-0.04687 -0.19792,-0.04687 -0.38542,-0.15625 -0.10416,0.354167 -0.17708,0.677084 -0.0677,0.322916 -0.10938,0.572916 -0.026,0.15625 -0.0625,0.328125 -0.0365,0.171875 -0.0729,0.333334 -0.0365,0.166666 -0.0729,0.3125 -0.0312,0.145833 -0.0521,0.25 -0.0156,0.0625 -0.0781,0.104166 -0.0573,0.04167 -0.14062,0.06771 -0.0833,0.03125 -0.17188,0.04167 -0.0833,0.01563 -0.15104,0.01563 -0.38542,0 -0.38542,-0.302083 0,-0.08333 0.026,-0.177083 z m 1.61458,-3.020834 q 0.0781,0.01042 0.16667,0.02604 0.0885,0.01563 0.17187,0.03125 0.0833,0.01563 0.14063,0.03125 0.0625,0.01042 0.0833,0.01042 0.099,0 0.21875,-0.02604 0.125,-0.02604 0.24479,-0.06771 0.125,-0.04167 0.23958,-0.08854 0.11459,-0.05208 0.20313,-0.09896 0.25521,-0.130209 0.54167,-0.3125 0.29166,-0.1875 0.53645,-0.427084 0.25,-0.239583 0.41146,-0.536458 0.16146,-0.296875 0.16146,-0.65625 0,-0.145833 -0.0365,-0.270833 -0.0365,-0.125 -0.10937,-0.21875 -0.0729,-0.09375 -0.19271,-0.145834 -0.11458,-0.05729 -0.27604,-0.05729 -0.17709,0 -0.33334,0.02604 -0.15625,0.02083 -0.30729,0.07292 -0.15104,0.05208 -0.30208,0.135417 -0.15104,0.07813 -0.3125,0.192708 -0.14583,0.119792 -0.32813,0.213542 -0.18229,0.08854 -0.39583,0.114583 z" />
      <path
         inkscape:connector-curvature="0"
         id="path1196"
         style="font-style:normal;font-variant:normal;font-weight:normal;font-stretch:normal;font-size:10.66666698px;font-family:'MV Boli';-inkscape-font-specification:'MV Boli'"
         d="m 197.29688,34.860267 q 0.0677,-0.364583 0.15625,-0.802083 0.0885,-0.4375 0.18229,-0.885417 0.0937,-0.447917 0.18229,-0.880208 0.0885,-0.432292 0.15104,-0.791667 -0.005,-0.05208 -0.005,-0.08854 0,-0.04167 0,-0.08854 0,-0.161459 0.0208,-0.322917 0.0208,-0.161458 0.0573,-0.296875 0.0573,-0.197917 0.125,-0.265625 0.0729,-0.07292 0.22916,-0.07292 0.15105,0 0.23959,0.0625 0.0937,0.05729 0.14583,0.15625 0.0521,0.09896 0.0677,0.229167 0.0156,0.125 0.0156,0.260417 0,0.07292 -0.005,0.161458 -0.005,0.08854 -0.005,0.140625 Q 199,31.22485 199.16146,31.0686 q 0.16667,-0.161458 0.34896,-0.286458 0.1875,-0.130208 0.39062,-0.213542 0.20834,-0.08333 0.43229,-0.08333 0.0885,0 0.17188,0.01563 0.0885,0.01563 0.17708,0.04167 0.10417,0.02604 0.21354,0.07292 0.11459,0.04167 0.21875,0.119792 0.17188,0.130208 0.28646,0.328125 0.11979,0.192708 0.11979,0.395833 0,0.07813 -0.0312,0.171875 -0.0312,0.08854 -0.0885,0.166667 -0.0521,0.07292 -0.125,0.125 -0.0729,0.04687 -0.16146,0.04687 -0.0885,0 -0.21875,-0.04167 -0.125,-0.04687 -0.20833,-0.119791 -0.0365,-0.03125 -0.0781,-0.08854 -0.0365,-0.05729 -0.0729,-0.114583 -0.0312,-0.05729 -0.0625,-0.104167 -0.026,-0.05208 -0.0417,-0.06771 -0.026,-0.0052 -0.0573,-0.0052 -0.0312,-0.0052 -0.0573,-0.0052 -0.26563,0 -0.50521,0.135417 -0.23958,0.135416 -0.44792,0.333333 -0.20833,0.192708 -0.38541,0.416667 -0.17188,0.21875 -0.30209,0.395833 -0.10416,0.421875 -0.23437,0.901042 -0.125,0.473958 -0.25,0.994791 v 0.130209 q 0,0.15625 -0.0104,0.317708 -0.0104,0.161458 -0.0625,0.286458 -0.0573,0.07813 -0.16666,0.130209 -0.10417,0.05729 -0.2448,0.05729 -0.21875,0 -0.32812,-0.140625 -0.10938,-0.145833 -0.10938,-0.338541 0,-0.08854 0.026,-0.182292 z" />
      <path
         inkscape:connector-curvature="0"
         id="path1198"
         style="font-style:normal;font-variant:normal;font-weight:normal;font-stretch:normal;font-size:10.66666698px;font-family:'MV Boli';-inkscape-font-specification:'MV Boli'"
         d="m 201.66146,33.386309 q 0,-0.223959 0.1198,-0.380209 0.11979,-0.15625 0.3177,-0.208333 0.0573,-0.114583 0.17709,-0.307292 0.11979,-0.197916 0.29687,-0.427083 0.17709,-0.229167 0.40104,-0.458333 0.22917,-0.234375 0.5,-0.421875 0.27605,-0.192709 0.58855,-0.3125 0.3177,-0.119792 0.67187,-0.119792 0.30208,0 0.52604,0.07292 0.22396,0.07292 0.36979,0.203125 0.14584,0.130208 0.21875,0.3125 0.0729,0.177083 0.0729,0.385416 0,0.177084 -0.0469,0.338542 -0.0729,0.291667 -0.27084,0.510417 -0.19791,0.21875 -0.46875,0.385416 -0.26562,0.161459 -0.58333,0.270834 -0.3125,0.109375 -0.63021,0.182291 -0.3125,0.07292 -0.60417,0.114584 -0.29166,0.03646 -0.5052,0.05729 -0.0469,0.09375 -0.0833,0.239584 -0.0312,0.140625 -0.0312,0.276041 0,0.302084 0.23959,0.46875 0.23958,0.166667 0.66145,0.166667 0.2448,0 0.46875,-0.05208 0.22396,-0.05729 0.42188,-0.140625 0.20312,-0.08854 0.38021,-0.1875 0.17708,-0.104167 0.32291,-0.203125 0.1875,-0.125 0.35417,-0.208334 0.17188,-0.08854 0.30208,-0.08854 0.13021,0 0.16667,0.06771 0.0365,0.0625 0.0365,0.135417 0,0.04167 -0.005,0.08333 0,0.03646 -0.005,0.0625 -0.026,0.135417 -0.10416,0.270833 -0.0781,0.135417 -0.19792,0.234375 -0.54167,0.427084 -1.11458,0.609375 -0.56771,0.182292 -1.21355,0.182292 -0.125,0 -0.29687,-0.01563 -0.16667,-0.01563 -0.34896,-0.0625 -0.18229,-0.04687 -0.35937,-0.135417 -0.17709,-0.08854 -0.31771,-0.234375 -0.13542,-0.145833 -0.22396,-0.359375 -0.0833,-0.213541 -0.0833,-0.515625 0,-0.244791 0.0677,-0.546875 -0.0677,-0.01042 -0.1302,-0.06771 -0.0573,-0.0625 -0.0573,-0.177083 z m 3.26042,-1.442709 q 0.0104,-0.02604 0.0104,-0.04687 0,-0.02083 0,-0.04687 0,-0.140625 -0.10417,-0.208333 -0.10417,-0.07292 -0.25,-0.07292 -0.22917,0 -0.45312,0.119792 -0.21875,0.119792 -0.41667,0.302083 -0.19271,0.177084 -0.34375,0.385417 -0.15104,0.203125 -0.23438,0.369792 0.375,-0.03125 0.6875,-0.09896 0.3125,-0.07292 0.54167,-0.177083 0.23438,-0.109375 0.375,-0.239583 0.14583,-0.135417 0.1875,-0.286459 z m -0.60417,-1.411458 z m 2.33334,-2.145834 q -0.0573,0.229167 -0.19792,0.369792 -0.13542,0.140625 -0.33854,0.244792 l -1.63542,0.8125 q -0.0937,0.05208 -0.25,0.05208 -0.11979,0 -0.17187,-0.05208 -0.0521,-0.05729 -0.0521,-0.145834 0,-0.109375 0.0417,-0.197916 0.0469,-0.08854 0.11458,-0.161459 0.0677,-0.07292 0.14584,-0.125 0.0781,-0.05729 0.14062,-0.09896 l 0.39584,-0.234375 q 0.25,-0.145833 0.48958,-0.291667 0.23958,-0.151041 0.44792,-0.265625 0.20833,-0.119791 0.375,-0.192708 0.16666,-0.07813 0.26041,-0.07813 0.10417,0 0.17188,0.07292 0.0729,0.07292 0.0729,0.192708 0,0.02604 0,0.05208 0,0.02083 -0.0104,0.04687 z" />
      <path
         inkscape:connector-curvature="0"
         id="path1200"
         style="font-style:normal;font-variant:normal;font-weight:normal;font-stretch:normal;font-size:10.66666698px;font-family:'MV Boli';-inkscape-font-specification:'MV Boli'"
         d="m 207.13021,34.47485 q 0.0417,0 0.0729,0.01042 0.0365,0.01042 0.0781,0.02604 0.0417,0.01042 0.0937,0.02083 0.0521,0.01042 0.13542,0.01042 0.24479,0 0.54166,-0.05208 0.30209,-0.05208 0.56771,-0.135416 0.26563,-0.08333 0.45313,-0.1875 0.19271,-0.109375 0.21875,-0.223959 0.0156,-0.0625 0.0156,-0.109375 0,-0.08854 -0.0885,-0.166666 -0.0833,-0.08333 -0.21354,-0.15625 -0.13021,-0.07292 -0.28125,-0.135417 -0.15104,-0.0625 -0.28125,-0.114583 l -0.17708,-0.07292 q -0.13542,-0.05208 -0.26563,-0.125 -0.13021,-0.07813 -0.24479,-0.177083 -0.10938,-0.09896 -0.19792,-0.229167 -0.0833,-0.135417 -0.125,-0.307292 -0.0208,-0.07292 -0.0365,-0.145833 -0.0104,-0.07292 -0.0104,-0.15625 0,-0.135417 0.0885,-0.307292 0.0937,-0.177083 0.24479,-0.348958 0.15625,-0.171875 0.34896,-0.328125 0.19792,-0.15625 0.41146,-0.260417 0.15625,-0.109375 0.30208,-0.197916 0.14583,-0.08854 0.29167,-0.151042 0.15104,-0.0625 0.30208,-0.09896 0.15625,-0.03646 0.32813,-0.03646 0.15625,0 0.33854,0.01563 0.18229,0.01563 0.33333,0.07292 0.15104,0.05729 0.25,0.171875 0.10417,0.109375 0.10417,0.296875 0,0.05729 -0.0156,0.151042 -0.0156,0.09375 -0.0521,0.1875 -0.0365,0.09375 -0.0885,0.161458 -0.0521,0.06771 -0.125,0.06771 -0.11979,0 -0.19792,-0.04687 -0.0781,-0.04687 -0.14062,-0.09896 -0.0625,-0.05729 -0.13021,-0.104167 -0.0677,-0.04687 -0.16667,-0.04687 -0.11979,0 -0.28125,0.04687 -0.15625,0.04167 -0.32292,0.119792 -0.16666,0.07292 -0.32812,0.171875 -0.15625,0.09896 -0.28646,0.203125 -0.125,0.104167 -0.20312,0.208333 -0.0781,0.09896 -0.0781,0.182292 0,0.08854 0.0573,0.145833 0.0573,0.05729 0.14584,0.09896 0.11458,0.0625 0.26041,0.125 0.15104,0.0625 0.30209,0.125 0.15104,0.0625 0.29166,0.125 0.14584,0.0625 0.25,0.114583 0.14063,0.07292 0.25,0.145833 0.11459,0.06771 0.19271,0.151042 0.0781,0.08333 0.11979,0.1875 0.0417,0.104167 0.0417,0.244792 0,0.06771 -0.0104,0.135416 -0.0104,0.06771 -0.0312,0.15625 -0.0156,0.07813 -0.0573,0.182292 -0.0365,0.104167 -0.0833,0.208333 -0.0417,0.09896 -0.0885,0.182292 -0.0469,0.07813 -0.0781,0.104167 -0.20312,0.1875 -0.47917,0.354166 -0.27604,0.161459 -0.57812,0.286459 -0.29688,0.119791 -0.59896,0.192708 -0.29687,0.07292 -0.54687,0.07292 -0.125,0 -0.27605,-0.04687 -0.15104,-0.05208 -0.28125,-0.130209 -0.125,-0.08333 -0.21354,-0.1875 -0.0833,-0.104166 -0.0833,-0.208333 0,-0.05208 0.0312,-0.114583 0.0312,-0.06771 0.0781,-0.119792 0.0469,-0.05729 0.099,-0.09375 0.0573,-0.04167 0.10417,-0.04167 z" />
      <path
         inkscape:connector-curvature="0"
         id="path1202"
         style="font-style:normal;font-variant:normal;font-weight:normal;font-stretch:normal;font-size:10.66666698px;font-family:'MV Boli';-inkscape-font-specification:'MV Boli'"
         d="m 211.34896,33.386309 q 0,-0.223959 0.1198,-0.380209 0.11979,-0.15625 0.3177,-0.208333 0.0573,-0.114583 0.17709,-0.307292 0.11979,-0.197916 0.29687,-0.427083 0.17709,-0.229167 0.40104,-0.458333 0.22917,-0.234375 0.5,-0.421875 0.27605,-0.192709 0.58855,-0.3125 0.3177,-0.119792 0.67187,-0.119792 0.30208,0 0.52604,0.07292 0.22396,0.07292 0.36979,0.203125 0.14584,0.130208 0.21875,0.3125 0.0729,0.177083 0.0729,0.385416 0,0.177084 -0.0469,0.338542 -0.0729,0.291667 -0.27084,0.510417 -0.19791,0.21875 -0.46875,0.385416 -0.26562,0.161459 -0.58333,0.270834 -0.3125,0.109375 -0.63021,0.182291 -0.3125,0.07292 -0.60417,0.114584 -0.29166,0.03646 -0.5052,0.05729 -0.0469,0.09375 -0.0833,0.239584 -0.0312,0.140625 -0.0312,0.276041 0,0.302084 0.23959,0.46875 0.23958,0.166667 0.66145,0.166667 0.2448,0 0.46875,-0.05208 0.22396,-0.05729 0.42188,-0.140625 0.20312,-0.08854 0.38021,-0.1875 0.17708,-0.104167 0.32291,-0.203125 0.1875,-0.125 0.35417,-0.208334 0.17188,-0.08854 0.30208,-0.08854 0.13021,0 0.16667,0.06771 0.0365,0.0625 0.0365,0.135417 0,0.04167 -0.005,0.08333 0,0.03646 -0.005,0.0625 -0.026,0.135417 -0.10416,0.270833 -0.0781,0.135417 -0.19792,0.234375 -0.54167,0.427084 -1.11458,0.609375 -0.56771,0.182292 -1.21355,0.182292 -0.125,0 -0.29687,-0.01563 -0.16667,-0.01563 -0.34896,-0.0625 -0.18229,-0.04687 -0.35937,-0.135417 -0.17709,-0.08854 -0.31771,-0.234375 -0.13542,-0.145833 -0.22396,-0.359375 -0.0833,-0.213541 -0.0833,-0.515625 0,-0.244791 0.0677,-0.546875 -0.0677,-0.01042 -0.1302,-0.06771 -0.0573,-0.0625 -0.0573,-0.177083 z m 3.26042,-1.442709 q 0.0104,-0.02604 0.0104,-0.04687 0,-0.02083 0,-0.04687 0,-0.140625 -0.10417,-0.208333 -0.10417,-0.07292 -0.25,-0.07292 -0.22917,0 -0.45312,0.119792 -0.21875,0.119792 -0.41667,0.302083 -0.19271,0.177084 -0.34375,0.385417 -0.15104,0.203125 -0.23438,0.369792 0.375,-0.03125 0.6875,-0.09896 0.3125,-0.07292 0.54167,-0.177083 0.23438,-0.109375 0.375,-0.239583 0.14583,-0.135417 0.1875,-0.286459 z m -0.60417,-1.411458 z" />
      <path
         inkscape:connector-curvature="0"
         id="path1204"
         style="font-style:normal;font-variant:normal;font-weight:normal;font-stretch:normal;font-size:10.66666698px;font-family:'MV Boli';-inkscape-font-specification:'MV Boli'"
         d="m 220.39063,31.120684 q -0.1823,0 -0.39063,0.08854 -0.20833,0.08333 -0.43229,0.229167 -0.22396,0.145833 -0.45833,0.333333 -0.22917,0.182292 -0.45313,0.380209 -0.11458,0.09896 -0.21875,0.182291 -0.10417,0.07813 -0.20833,0.119792 -0.0729,0.119792 -0.15625,0.317708 -0.0781,0.192709 -0.15625,0.427084 -0.0781,0.229166 -0.15104,0.473958 -0.0677,0.239583 -0.11459,0.447917 -0.026,0.109375 -0.0417,0.213541 -0.0156,0.104167 -0.0365,0.223959 -0.0208,0.114583 -0.0521,0.25 -0.026,0.135416 -0.0677,0.302083 -0.026,0.09896 -0.0833,0.161458 -0.0573,0.05729 -0.11979,0.08854 -0.0625,0.03125 -0.11979,0.03646 -0.0573,0.01042 -0.0885,0.01042 -0.19792,0 -0.32292,-0.09375 -0.125,-0.09375 -0.125,-0.364583 0,-0.07292 0.005,-0.151042 0.005,-0.08333 0.0312,-0.182292 0.11458,-0.494791 0.21875,-0.890625 0.10937,-0.395833 0.21875,-0.734375 0.10937,-0.338541 0.21875,-0.635416 0.11458,-0.302084 0.22917,-0.604167 0.11979,-0.307292 0.24479,-0.630208 0.13021,-0.328125 0.27604,-0.723959 0.0312,-0.08854 0.16146,-0.145833 0.13541,-0.0625 0.28646,-0.0625 0.19791,0 0.32291,0.08854 0.13021,0.08854 0.13021,0.255208 0,0.01563 -0.0104,0.05729 -0.0104,0.04167 -0.0312,0.08854 l -0.22916,0.541667 q 0.21875,-0.171875 0.45312,-0.34375 0.23959,-0.171875 0.48959,-0.307292 0.25,-0.140625 0.5,-0.223958 0.2552,-0.08854 0.5,-0.08854 0.5,0 0.78125,0.270834 0.28125,0.265625 0.28125,0.828125 0,0.322916 -0.11459,0.734375 -0.10937,0.411458 -0.28125,0.885416 -0.16666,0.46875 -0.36458,0.989584 -0.19271,0.515625 -0.35938,1.052083 -0.0469,0.145833 -0.099,0.244792 -0.0469,0.09896 -0.11459,0.15625 -0.0677,0.0625 -0.16146,0.08854 -0.0885,0.02604 -0.21875,0.02604 -0.20312,0 -0.28125,-0.07813 -0.0781,-0.07292 -0.0781,-0.239583 0,-0.145834 0.0417,-0.354167 0.0469,-0.213542 0.125,-0.463542 0.0833,-0.255208 0.1875,-0.541666 0.10937,-0.286459 0.23437,-0.583334 0.099,-0.239583 0.19271,-0.479166 0.099,-0.239584 0.17187,-0.463542 0.0781,-0.223958 0.125,-0.427083 0.0469,-0.203125 0.0469,-0.375 0,-0.161459 -0.0729,-0.28125 -0.0677,-0.125 -0.26041,-0.125 z" />
      <path
         inkscape:connector-curvature="0"
         id="path1206"
         style="font-style:normal;font-variant:normal;font-weight:normal;font-stretch:normal;font-size:10.66666698px;font-family:'MV Boli';-inkscape-font-specification:'MV Boli'"
         d="m 223.33334,33.776934 q 0,-0.4375 0.099,-0.90625 0.099,-0.473959 0.20834,-0.90625 -0.13542,-0.0052 -0.27604,-0.04167 -0.14063,-0.03646 -0.25521,-0.09896 -0.11459,-0.0625 -0.1875,-0.151042 -0.0729,-0.09375 -0.0729,-0.213542 0,-0.04687 0.0208,-0.119791 0.0208,-0.07292 0.0573,-0.140625 0.0417,-0.07292 0.10416,-0.119792 0.0625,-0.05208 0.14063,-0.05208 h 0.69791 q 0.099,0 0.13542,-0.08333 0.0365,-0.08854 0.0573,-0.171875 0.0677,-0.302083 0.125,-0.520833 0.0625,-0.223959 0.10417,-0.375 0.0417,-0.15625 0.0625,-0.25 0.026,-0.09896 0.026,-0.15625 0,-0.06771 -0.005,-0.130209 -0.005,-0.0625 -0.005,-0.171875 v -0.05208 q 0,-0.04167 0.005,-0.109375 0.0104,-0.06771 0.0521,-0.192708 0.0312,-0.09896 0.11458,-0.1875 0.0833,-0.08854 0.24479,-0.08854 0.14063,0 0.23958,0.05729 0.099,0.05729 0.16146,0.151041 0.0625,0.09375 0.0937,0.213542 0.0312,0.119792 0.0312,0.239583 0,0.130209 -0.026,0.234375 l -0.38021,1.458334 q 0.28125,-0.04687 0.5,-0.08854 0.21875,-0.04167 0.4375,-0.08333 0.23959,-0.04687 0.41146,-0.08854 0.17708,-0.04167 0.30208,-0.06771 0.125,-0.03125 0.20834,-0.04687 0.0885,-0.02083 0.14583,-0.02083 0.0833,0 0.16667,0.01563 0.0885,0.01042 0.15104,0.04167 0.0677,0.03125 0.10937,0.08854 0.0417,0.05729 0.0417,0.151042 0,0.125 -0.0521,0.223958 -0.0469,0.09375 -0.125,0.166667 -0.0781,0.06771 -0.17709,0.114583 -0.099,0.04167 -0.19791,0.0625 -0.0833,0.01563 -0.21875,0.04687 -0.13021,0.03125 -0.29167,0.06771 -0.15625,0.03646 -0.32812,0.07813 -0.17188,0.04167 -0.33334,0.08333 -0.23958,0.0625 -0.41146,0.104166 -0.16666,0.04167 -0.28645,0.0625 -0.1198,0.02083 -0.19792,0.03125 -0.0729,0.01042 -0.11979,0.01042 -0.099,0.296875 -0.17188,0.583333 -0.0729,0.286459 -0.125,0.536459 -0.0469,0.244791 -0.0729,0.442708 -0.0208,0.192708 -0.0208,0.302083 0,0.140625 0.026,0.270834 0.026,0.125 0.0885,0.21875 0.0625,0.09375 0.16666,0.151041 0.10938,0.05208 0.27084,0.05208 0.27604,0 0.54166,-0.151042 0.26563,-0.151042 0.50521,-0.380208 0.24479,-0.234375 0.45833,-0.510417 0.21875,-0.276042 0.40105,-0.526042 0.0625,-0.09375 0.16145,-0.09375 0.0312,0 0.0729,0.01042 0.0469,0.01042 0.0885,0.03646 0.0417,0.02604 0.0677,0.06771 0.0312,0.04167 0.0312,0.09896 0,0.04167 -0.005,0.0625 -0.0833,0.322917 -0.26041,0.651042 -0.17188,0.322916 -0.35417,0.651041 -0.0625,0.114584 -0.16667,0.223959 -0.099,0.109375 -0.21875,0.213541 -0.11979,0.09896 -0.25,0.192709 -0.13021,0.08854 -0.24479,0.161458 -0.19792,0.125 -0.43229,0.171875 -0.23438,0.04687 -0.45313,0.04687 -0.33854,0 -0.60416,-0.119792 -0.26042,-0.125 -0.44271,-0.333333 -0.17708,-0.213542 -0.27083,-0.494792 -0.0937,-0.28125 -0.0937,-0.604166 z" />
    </g>
  </g>
</svg>
